<svg width="52" height="50" viewBox="0 0 52 50" fill="none" xmlns="http://www.w3.org/2000/svg">
<g filter="url(#filter0_d_12577_16847)">
<path d="M16.8 17.2L21 20L25.186 14.14C25.2785 14.0103 25.4006 13.9047 25.5422 13.8318C25.6838 13.7589 25.8408 13.7208 26 13.7208C26.1593 13.7208 26.3162 13.7589 26.4578 13.8318C26.5994 13.9047 26.7215 14.0103 26.814 14.14L31 20L35.2 17.2C35.359 17.0942 35.5449 17.0362 35.7358 17.0327C35.9266 17.0292 36.1145 17.0805 36.2772 17.1804C36.4399 17.2803 36.5706 17.4247 36.6539 17.5965C36.7371 17.7683 36.7694 17.9604 36.747 18.15L35.104 32.117C35.0753 32.3602 34.9584 32.5845 34.7754 32.7472C34.5923 32.91 34.3559 32.9999 34.111 33H17.889C17.6441 32.9999 17.4077 32.91 17.2246 32.7472C17.0416 32.5845 16.9247 32.3602 16.896 32.117L15.253 18.149C15.2308 17.9594 15.2633 17.7675 15.3466 17.5959C15.43 17.4242 15.5607 17.28 15.7233 17.1802C15.886 17.0804 16.0738 17.0293 16.2645 17.0328C16.4553 17.0363 16.6411 17.0943 16.8 17.2ZM26 27C26.5304 27 27.0391 26.7892 27.4142 26.4142C27.7893 26.0391 28 25.5304 28 25C28 24.4695 27.7893 23.9608 27.4142 23.5857C27.0391 23.2107 26.5304 23 26 23C25.4696 23 24.9609 23.2107 24.5858 23.5857C24.2107 23.9608 24 24.4695 24 25C24 25.5304 24.2107 26.0391 24.5858 26.4142C24.9609 26.7892 25.4696 27 26 27Z" fill="#A2A2A1"/>
</g>
<defs>
<filter id="filter0_d_12577_16847" x="-1" y="-1" width="54" height="54" filterUnits="userSpaceOnUse" color-interpolation-filters="sRGB">
<feFlood flood-opacity="0" result="BackgroundImageFix"/>
<feColorMatrix in="SourceAlpha" type="matrix" values="0 0 0 0 0 0 0 0 0 0 0 0 0 0 0 0 0 0 127 0" result="hardAlpha"/>
<feOffset dy="2"/>
<feGaussianBlur stdDeviation="7.5"/>
<feColorMatrix type="matrix" values="0 0 0 0 0.129412 0 0 0 0 0.129412 0 0 0 0 0.203922 0 0 0 0.1 0"/>
<feBlend mode="normal" in2="BackgroundImageFix" result="effect1_dropShadow_12577_16847"/>
<feBlend mode="normal" in="SourceGraphic" in2="effect1_dropShadow_12577_16847" result="shape"/>
</filter>
</defs>
</svg>
