<svg xmlns="http://www.w3.org/2000/svg" viewBox="0 0 1330.27 299.15"><defs><style>.cls-1{fill:#dcdce4;}.cls-2{fill:#a5a5ba;}.cls-3{fill:#c0c0cf;}.cls-4{fill:#ee5e52;}.cls-5{fill:#4a4a6a;}.cls-6{fill:#32324d;}</style></defs><g id="Layer_2" data-name="Layer 2"><g id="Layer_1-2" data-name="Layer 1"><path class="cls-1" d="M200.93,82.9A34.92,34.92,0,1,0,235.84,48,34.95,34.95,0,0,0,200.93,82.9Zm34.91-11.7a11.7,11.7,0,1,1-11.7,11.7A11.7,11.7,0,0,1,235.84,71.2Z" transform="translate(0 -0.34)"/><path class="cls-2" d="M98.67,188.38a48.35,48.35,0,0,0,11.46-2.18,4.15,4.15,0,0,1,3.68.72,4,4,0,0,1,1.57,3.36v.37c0,6.55,6.21,9.56,11.42,10.93,3.27.88,13.17,3.15,19.73,3.15,5.34,0,15.27-1.49,20.62-4.8a101.35,101.35,0,0,0,10.61-7.64,3,3,0,0,1,4.65,1.1c2.08,4.72,6.63,11.75,10.65,11.75a10.82,10.82,0,0,0,10.05-6.76,6.4,6.4,0,0,1,4.09-3.73c2.24-.7,4.19-1.37,5.72-2l-28.19-32.2-.11-.19a25.51,25.51,0,0,1,44.18-25.51l0,0,16.26,29.29a10.89,10.89,0,0,0,3-2.87l.23-.33.34-.23c.06,0,6.41-4.4,8.92-7.07a38.74,38.74,0,0,0,9-37.14l-2.45-6.09a39.39,39.39,0,0,1-59.44-3.28,39.16,39.16,0,0,1-21.23,6.2,39.62,39.62,0,0,1-8.57-.94,39.48,39.48,0,1,1,.4-5.64c0,.36,0,.72,0,1.08a35.05,35.05,0,0,0,8.18,1,34.62,34.62,0,0,0,18.65-5.39,39.43,39.43,0,0,1,33.47-59.9A85.16,85.16,0,0,0,79.15,90v0l-1.1,61.82a8.09,8.09,0,0,1-4,6.83,10.85,10.85,0,0,0-2.59,16.5l.07.09A34.54,34.54,0,0,0,98.67,188.38Z" transform="translate(0 -0.34)"/><path class="cls-3" d="M279.37,225.83l45.22-11.28V202.61a449.91,449.91,0,0,0-55.74,4.27Z" transform="translate(0 -0.34)"/><path class="cls-4" d="M274,244.43a9.37,9.37,0,0,0,3.42-12.78l0,0L224.86,137a21,21,0,0,0-36.42,20.8l72.5,82.81C263,242.86,268.45,247.63,274,244.43Z" transform="translate(0 -0.34)"/><path class="cls-3" d="M207.31,200.09a15.33,15.33,0,0,1-14.25,9.58c-6.74,0-11.85-8.5-13.95-12.64a103.3,103.3,0,0,1-9.57,6.75c-6.45,4-17.54,5.49-23,5.49-8.5,0-20.77-3.28-20.89-3.31-9.51-2.5-14.77-7.91-14.8-15.25-3.74,1-8.71,2.21-12.17,2.21a39,39,0,0,1-21.21-6.22l-.24,13.41c2.78.27,5.67.57,8.65.91a432.92,432.92,0,0,1,46.8,7.89,310.1,310.1,0,0,1,49.79,15.59A303.16,303.16,0,0,1,228,209.91l-12-13.65a71.67,71.67,0,0,1-7.53,2.72A1.92,1.92,0,0,0,207.31,200.09Z" transform="translate(0 -0.34)"/><path class="cls-3" d="M251.56,164.18a15.34,15.34,0,0,1-4.27,3.88l19.2,34.57c12.54-1.78,24-2.87,33.45-3.53L272.45,131a43,43,0,0,1-11.55,25.74C258.38,159.38,253,163.21,251.56,164.18Z" transform="translate(0 -0.34)"/><path class="cls-3" d="M231.4,213.77a301.21,301.21,0,0,0-48.06,15.28l-.88.37-.88-.37c-33.69-14.18-70.88-20.62-96.16-23.52a438.69,438.69,0,0,0-45.09-2.92v11.94L162.38,245a8.8,8.8,0,0,1,8.24-5.73h23.69a8.79,8.79,0,0,1,8.23,5.73l46.12-11.49Z" transform="translate(0 -0.34)"/><path class="cls-5" d="M194.31,243.78H170.62a4.26,4.26,0,0,0-4.26,4.25V295h32.2V248A4.26,4.26,0,0,0,194.31,243.78Z" transform="translate(0 -0.34)"/><path class="cls-5" d="M357.58,213.9a7.3,7.3,0,0,0-6.28-1.33l-69.66,17.36a13.89,13.89,0,0,1-5.38,18.43,12.25,12.25,0,0,1-6.15,1.68c-4.22,0-8.61-2.18-12.51-6.35l-.05-.06L252,237.32l-48.93,12.19V295h150a7.32,7.32,0,0,0,7.32-7.31v-68A7.3,7.3,0,0,0,357.58,213.9Z" transform="translate(0 -0.34)"/><path class="cls-1" d="M135.85,71.79a34.92,34.92,0,1,0,34.92,34.91A34.95,34.95,0,0,0,135.85,71.79Zm0,46.62a11.71,11.71,0,1,1,11.7-11.71A11.7,11.7,0,0,1,135.85,118.41Z" transform="translate(0 -0.34)"/><path class="cls-5" d="M7.35,213.9a7.28,7.28,0,0,0-2.82,5.77v68A7.33,7.33,0,0,0,11.85,295h150V249.51L13.62,212.57A7.27,7.27,0,0,0,7.35,213.9Z" transform="translate(0 -0.34)"/><circle class="cls-6" cx="135.85" cy="106.36" r="11.7"/><circle class="cls-6" cx="235.84" cy="82.9" r="11.7" transform="translate(-13.77 96.22) rotate(-22.5)"/><path class="cls-6" d="M360.37,210.33a11.77,11.77,0,0,0-10.16-2.16l-21.08,5.25V198.11l-2.24,0c-.15,0-8.63-.1-22.18.71l-37.25-92.32a39.44,39.44,0,0,0-26.3-62.67A89.61,89.61,0,0,0,135.91,5a89.8,89.8,0,0,0-61.3,85l-1.09,61.8a3.59,3.59,0,0,1-1.77,3A15.38,15.38,0,0,0,68,178.18,39.54,39.54,0,0,0,73,183.33l-.29,16.37c-20.63-1.78-34.49-1.62-34.66-1.62l-2.23,0v15.31l-21.09-5.25A11.84,11.84,0,0,0,0,219.67v68A11.87,11.87,0,0,0,11.85,299.5H353.07a11.86,11.86,0,0,0,11.85-11.85v-68A11.78,11.78,0,0,0,360.37,210.33Zm-35.78-7.72v11.94l-45.22,11.28-10.52-19A449.91,449.91,0,0,1,324.59,202.61Zm-136.15-44.8A21,21,0,0,1,224.86,137l52.54,94.61,0,0A9.37,9.37,0,0,1,274,244.43c-5.55,3.2-11-1.57-13.06-3.81ZM228,209.91a303.16,303.16,0,0,0-45.56,14.59,310.1,310.1,0,0,0-49.79-15.59A432.92,432.92,0,0,0,85.87,201c-3-.34-5.87-.64-8.65-.91l.24-13.41a39,39,0,0,0,21.21,6.22c3.46,0,8.43-1.17,12.17-2.21,0,7.34,5.29,12.75,14.8,15.25.12,0,12.39,3.31,20.89,3.31,5.47,0,16.56-1.49,23-5.49a103.3,103.3,0,0,0,9.57-6.75c2.1,4.14,7.21,12.64,13.95,12.64a15.33,15.33,0,0,0,14.25-9.58,1.92,1.92,0,0,1,1.23-1.11,71.67,71.67,0,0,0,7.53-2.72Zm71.92-10.81c-9.47.66-20.91,1.75-33.45,3.53l-19.2-34.57a15.34,15.34,0,0,0,4.27-3.88c1.39-1,6.82-4.8,9.34-7.49A43,43,0,0,0,272.45,131ZM270.76,82.9A34.92,34.92,0,1,1,235.84,48,35,35,0,0,1,270.76,82.9ZM71.55,175.32l-.07-.09a10.85,10.85,0,0,1,2.59-16.5,8.09,8.09,0,0,0,4-6.83l1.1-61.82v0A85.16,85.16,0,0,1,235.59,43.45a39.43,39.43,0,0,0-33.47,59.9,34.62,34.62,0,0,1-18.65,5.39,35.05,35.05,0,0,1-8.18-1c0-.36,0-.72,0-1.08a39.42,39.42,0,1,0-.4,5.64,39.62,39.62,0,0,0,8.57.94,39.16,39.16,0,0,0,21.23-6.2,39.39,39.39,0,0,0,59.44,3.28l2.45,6.09a38.74,38.74,0,0,1-9,37.14c-2.51,2.67-8.86,7-8.92,7.07l-.34.23-.23.33a10.89,10.89,0,0,1-3,2.87L228.82,134.8l0,0a25.51,25.51,0,0,0-44.18,25.51l.11.19,28.19,32.2c-1.53.62-3.48,1.29-5.72,2a6.4,6.4,0,0,0-4.09,3.73,10.82,10.82,0,0,1-10.05,6.76c-4,0-8.57-7-10.65-11.75a3,3,0,0,0-4.65-1.1,101.35,101.35,0,0,1-10.61,7.64c-5.35,3.31-15.28,4.8-20.62,4.8-6.56,0-16.46-2.27-19.73-3.15-5.21-1.37-11.42-4.38-11.42-10.93v-.37a4,4,0,0,0-1.57-3.36,4.15,4.15,0,0,0-3.68-.72,48.35,48.35,0,0,1-11.46,2.18A34.54,34.54,0,0,1,71.55,175.32Zm99.22-68.62a34.92,34.92,0,1,1-34.92-34.91A35,35,0,0,1,170.77,106.7ZM161.83,295h-150a7.33,7.33,0,0,1-7.32-7.31v-68a7.32,7.32,0,0,1,9.09-7.1l148.21,36.94Zm36.73,0h-32.2V248a4.26,4.26,0,0,1,4.26-4.25h23.69a4.26,4.26,0,0,1,4.25,4.25Zm4-50a8.79,8.79,0,0,0-8.23-5.73H170.62a8.8,8.8,0,0,0-8.24,5.73l-122-30.42V202.61a438.69,438.69,0,0,1,45.09,2.92c25.28,2.9,62.47,9.34,96.16,23.52l.88.37.88-.37a301.21,301.21,0,0,1,48.06-15.28l17.26,19.71Zm157.85,42.68a7.32,7.32,0,0,1-7.32,7.31h-150V249.51L252,237.32l5.53,6.31.05.06c3.9,4.17,8.29,6.35,12.51,6.35a12.25,12.25,0,0,0,6.15-1.68,13.89,13.89,0,0,0,5.38-18.43l69.66-17.36a7.31,7.31,0,0,1,9.09,7.1Z" transform="translate(0 -0.34)"/><path class="cls-6" d="M463.07,17.54a22.63,22.63,0,0,0-9,1.72,18.42,18.42,0,0,0-6.82,5,22.64,22.64,0,0,0-4.3,7.87,33.54,33.54,0,0,0-1.5,10.39,33.87,33.87,0,0,0,2.39,13.28A18.84,18.84,0,0,0,451,64.5a21.51,21.51,0,0,0,11.91,3.07,40.76,40.76,0,0,0,7.67-.68,66.25,66.25,0,0,0,7-1.73v6.15a36.36,36.36,0,0,1-7,1.85,54.44,54.44,0,0,1-8.69.61q-9.27,0-15.48-3.85a23.63,23.63,0,0,1-9.31-10.87A40.88,40.88,0,0,1,434,42.47a39.11,39.11,0,0,1,1.93-12.61A28.1,28.1,0,0,1,441.56,20a25.06,25.06,0,0,1,9.14-6.42,32.11,32.11,0,0,1,12.45-2.27,42.41,42.41,0,0,1,8.89.92,32.67,32.67,0,0,1,7.73,2.62l-2.82,6a44.87,44.87,0,0,0-6.38-2.31A27.71,27.71,0,0,0,463.07,17.54Z" transform="translate(0 -0.34)"/><path class="cls-6" d="M528.94,50.08a31.81,31.81,0,0,1-1.46,10,20.46,20.46,0,0,1-4.2,7.44,18,18,0,0,1-6.62,4.64,23,23,0,0,1-8.79,1.6,21.54,21.54,0,0,1-8.38-1.6,18.43,18.43,0,0,1-6.56-4.64,20.89,20.89,0,0,1-4.28-7.44,30.38,30.38,0,0,1-1.52-10,29.15,29.15,0,0,1,2.53-12.74,18.17,18.17,0,0,1,7.26-8,21.86,21.86,0,0,1,11.24-2.76,20.9,20.9,0,0,1,10.91,2.78,18.83,18.83,0,0,1,7.27,8A28.48,28.48,0,0,1,528.94,50.08Zm-34.66,0a28,28,0,0,0,1.45,9.51,13,13,0,0,0,24.6,0,28,28,0,0,0,1.46-9.51,27.32,27.32,0,0,0-1.46-9.41,12.58,12.58,0,0,0-4.48-6.13A13.21,13.21,0,0,0,508,32.37q-7.11,0-10.41,4.7T494.28,50.08Z" transform="translate(0 -0.34)"/><path class="cls-6" d="M590.32,26.56q7.51,0,11.34,3.92t3.83,12.62V72.94h-6.82V43.43q0-5.53-2.39-8.29c-1.59-1.84-3.95-2.77-7.08-2.77q-6.62,0-9.6,3.83t-3,11.26V72.94h-6.85V43.43a15.64,15.64,0,0,0-1.06-6.15,7.61,7.61,0,0,0-3.16-3.68,10.37,10.37,0,0,0-5.3-1.23A12.74,12.74,0,0,0,553,34.24a10.48,10.48,0,0,0-4,5.55,28.78,28.78,0,0,0-1.23,9V72.94h-6.9V27.39h5.57l1,6.44h.38a13.57,13.57,0,0,1,3.45-4A14.79,14.79,0,0,1,556,27.39a17.62,17.62,0,0,1,5.49-.83,17.83,17.83,0,0,1,8.7,1.93,11.23,11.23,0,0,1,5.09,5.88h.38a14.17,14.17,0,0,1,6.15-5.88A19,19,0,0,1,590.32,26.56Z" transform="translate(0 -0.34)"/><path class="cls-6" d="M641.06,26.56q8.52,0,13.59,5.86T659.72,50a32.21,32.21,0,0,1-2.33,13.05,17.57,17.57,0,0,1-6.54,8,18,18,0,0,1-10,2.71,19.2,19.2,0,0,1-6.36-1,15.06,15.06,0,0,1-4.7-2.58,16.74,16.74,0,0,1-3.24-3.53h-.5c.08,1.08.19,2.38.31,3.91s.19,2.85.19,4V93.3h-6.94V27.39h5.69l.92,6.73h.33a18.77,18.77,0,0,1,3.24-3.8,14.16,14.16,0,0,1,4.68-2.75A19.12,19.12,0,0,1,641.06,26.56Zm-1.2,5.81a14.1,14.1,0,0,0-7.63,1.83A10.46,10.46,0,0,0,628,39.67a27.81,27.81,0,0,0-1.41,9.12v1.33a32.45,32.45,0,0,0,1.27,9.77A11.31,11.31,0,0,0,632.06,66,13.35,13.35,0,0,0,639.94,68,10.86,10.86,0,0,0,647,65.75a13.58,13.58,0,0,0,4.22-6.38A29.18,29.18,0,0,0,652.61,50q0-8.06-3.13-12.82T639.86,32.37Z" transform="translate(0 -0.34)"/><path class="cls-6" d="M709.34,27.39V72.94h-5.65l-1-6.4h-.37a13.24,13.24,0,0,1-3.66,4,16.21,16.21,0,0,1-5,2.44,21.4,21.4,0,0,1-6,.81A21,21,0,0,1,678.59,72a11.6,11.6,0,0,1-5.51-5.4,20.84,20.84,0,0,1-1.85-9.39V27.39h7V56.73c0,3.79.86,6.63,2.58,8.5s4.34,2.8,7.86,2.8a15,15,0,0,0,8.08-1.91,10.66,10.66,0,0,0,4.34-5.63,27.19,27.19,0,0,0,1.33-9.12v-24Z" transform="translate(0 -0.34)"/><path class="cls-6" d="M738.64,68.11a21,21,0,0,0,3.49-.29,16.39,16.39,0,0,0,2.91-.7v5.36a14.67,14.67,0,0,1-3.34.91,24.24,24.24,0,0,1-4.18.38A16.59,16.59,0,0,1,731,72.5a10,10,0,0,1-4.71-4.3q-1.77-3-1.77-8.4v-27H718V29.42l6.52-2.7,2.74-9.89h4.16V27.39h13.34v5.4H731.41v26.8q0,4.29,2,6.4A6.83,6.83,0,0,0,738.64,68.11Z" transform="translate(0 -0.34)"/><path class="cls-6" d="M771.8,26.56a18.64,18.64,0,0,1,10,2.57,16.73,16.73,0,0,1,6.36,7.21,25.1,25.1,0,0,1,2.2,10.83v4.28H758.88q.12,8,4,12.22c2.58,2.8,6.2,4.19,10.89,4.19a33.57,33.57,0,0,0,7.64-.78,42.84,42.84,0,0,0,6.9-2.33v6.07a34,34,0,0,1-6.83,2.24,39.73,39.73,0,0,1-8,.71A23.48,23.48,0,0,1,762,71.09a18.47,18.47,0,0,1-7.59-7.88,27.31,27.31,0,0,1-2.7-12.72,30.37,30.37,0,0,1,2.47-12.73,18.36,18.36,0,0,1,17.6-11.2Zm-.08,5.65a11.32,11.32,0,0,0-8.81,3.61q-3.28,3.61-3.91,10.1h24.11a20,20,0,0,0-1.27-7.17,10.34,10.34,0,0,0-3.72-4.82A11,11,0,0,0,771.72,32.21Z" transform="translate(0 -0.34)"/><path class="cls-6" d="M822.76,26.56a28.48,28.48,0,0,1,2.86.14,23.25,23.25,0,0,1,2.66.4l-.87,6.4a18.17,18.17,0,0,0-2.49-.46,21.86,21.86,0,0,0-2.58-.17,12.43,12.43,0,0,0-5.17,1.1,12.64,12.64,0,0,0-4.26,3.16A14.89,14.89,0,0,0,810,42.08a18.88,18.88,0,0,0-1,6.42V72.94h-6.94V27.39h5.73l.75,8.39h.29a22.77,22.77,0,0,1,3.41-4.63,15.38,15.38,0,0,1,4.63-3.35A13.63,13.63,0,0,1,822.76,26.56Z" transform="translate(0 -0.34)"/><path class="cls-6" d="M898.1,72.94l-7.48-19.29H866.27l-7.44,19.29h-7.15l23.77-61h6.36l23.61,61Zm-9.6-25.56-7.11-19.16c-.16-.5-.43-1.32-.81-2.45l-1.14-3.54-1-2.95q-.42,1.71-.9,3.39t-.93,3.12l-.79,2.43-7.23,19.16Z" transform="translate(0 -0.34)"/><path class="cls-6" d="M942.24,60.47a12,12,0,0,1-2.19,7.33,13.11,13.11,0,0,1-6.23,4.47,27.85,27.85,0,0,1-9.66,1.5,39.83,39.83,0,0,1-8.27-.75,24.06,24.06,0,0,1-6.11-2.12V64.54A40.73,40.73,0,0,0,916.43,67a28.13,28.13,0,0,0,7.89,1.13c3.94,0,6.79-.64,8.57-1.92a6.06,6.06,0,0,0,2.66-5.19,5.42,5.42,0,0,0-1.06-3.3A10.74,10.74,0,0,0,930.93,55a54.42,54.42,0,0,0-6.9-3,75.39,75.39,0,0,1-7.54-3.3,13.81,13.81,0,0,1-4.9-4,10.21,10.21,0,0,1-1.73-6.16,10,10,0,0,1,4.68-8.87q4.66-3.09,12.28-3.09a35.07,35.07,0,0,1,7.71.81,36.36,36.36,0,0,1,6.71,2.18l-2.33,5.53a41.3,41.3,0,0,0-6-2,25.64,25.64,0,0,0-6.53-.83c-3.19,0-5.63.52-7.33,1.58a4.84,4.84,0,0,0-2.56,4.32,5.14,5.14,0,0,0,1.18,3.49,11.32,11.32,0,0,0,3.81,2.58q2.61,1.2,6.9,2.82a57.18,57.18,0,0,1,7.39,3.27,13.53,13.53,0,0,1,4.8,4.07A10.33,10.33,0,0,1,942.24,60.47Z" transform="translate(0 -0.34)"/><path class="cls-6" d="M982.8,60.47a12,12,0,0,1-2.19,7.33,13.11,13.11,0,0,1-6.23,4.47,27.85,27.85,0,0,1-9.66,1.5,39.83,39.83,0,0,1-8.27-.75,24.2,24.2,0,0,1-6.11-2.12V64.54A40.73,40.73,0,0,0,957,67a28.15,28.15,0,0,0,7.9,1.13q5.9,0,8.56-1.92a6.06,6.06,0,0,0,2.66-5.19,5.42,5.42,0,0,0-1.06-3.3A10.74,10.74,0,0,0,971.49,55a54.42,54.42,0,0,0-6.9-3,75.39,75.39,0,0,1-7.54-3.3,13.81,13.81,0,0,1-4.9-4,10.21,10.21,0,0,1-1.73-6.16,10,10,0,0,1,4.68-8.87q4.68-3.09,12.28-3.09a35.07,35.07,0,0,1,7.71.81,36.36,36.36,0,0,1,6.71,2.18l-2.33,5.53a41.3,41.3,0,0,0-6-2,25.64,25.64,0,0,0-6.53-.83c-3.19,0-5.63.52-7.33,1.58A4.84,4.84,0,0,0,957,38.11a5.15,5.15,0,0,0,1.19,3.49,11.16,11.16,0,0,0,3.8,2.58q2.61,1.2,6.9,2.82a57.18,57.18,0,0,1,7.39,3.27,13.53,13.53,0,0,1,4.8,4.07A10.33,10.33,0,0,1,982.8,60.47Z" transform="translate(0 -0.34)"/><path class="cls-6" d="M997.43,10.35a4.27,4.27,0,0,1,2.93,1.1,4.41,4.41,0,0,1,1.22,3.43,4.44,4.44,0,0,1-1.22,3.41,4.24,4.24,0,0,1-2.93,1.12,4.19,4.19,0,0,1-3-1.12,4.5,4.5,0,0,1-1.18-3.41,4.47,4.47,0,0,1,1.18-3.43A4.22,4.22,0,0,1,997.43,10.35Zm3.36,17V72.94h-6.9V27.39Z" transform="translate(0 -0.34)"/><path class="cls-6" d="M1044.84,60.47a12,12,0,0,1-2.18,7.33,13.11,13.11,0,0,1-6.23,4.47,27.85,27.85,0,0,1-9.66,1.5,39.76,39.76,0,0,1-8.27-.75,24.06,24.06,0,0,1-6.11-2.12V64.54A40.38,40.38,0,0,0,1019,67a28,28,0,0,0,7.89,1.13q5.91,0,8.56-1.92a6,6,0,0,0,2.66-5.19,5.36,5.36,0,0,0-1.06-3.3,10.58,10.58,0,0,0-3.55-2.79,54.42,54.42,0,0,0-6.9-3,75.39,75.39,0,0,1-7.54-3.3,13.85,13.85,0,0,1-4.91-4,10.21,10.21,0,0,1-1.72-6.16,10,10,0,0,1,4.67-8.87q4.68-3.09,12.29-3.09a34.91,34.91,0,0,1,7.7.81,36.22,36.22,0,0,1,6.72,2.18l-2.33,5.53a41.43,41.43,0,0,0-6-2,25.56,25.56,0,0,0-6.52-.83c-3.19,0-5.63.52-7.34,1.58a4.85,4.85,0,0,0-2.55,4.32,5.14,5.14,0,0,0,1.18,3.49,11.37,11.37,0,0,0,3.8,2.58q2.63,1.2,6.9,2.82a57.36,57.36,0,0,1,7.4,3.27,13.53,13.53,0,0,1,4.8,4.07A10.4,10.4,0,0,1,1044.84,60.47Z" transform="translate(0 -0.34)"/><path class="cls-6" d="M1070.65,68.11a21,21,0,0,0,3.49-.29,16.39,16.39,0,0,0,2.91-.7v5.36a14.67,14.67,0,0,1-3.34.91,24.24,24.24,0,0,1-4.18.38A16.59,16.59,0,0,1,1063,72.5a10,10,0,0,1-4.71-4.3q-1.77-3-1.77-8.4v-27H1050V29.42l6.52-2.7,2.74-9.89h4.16V27.39h13.34v5.4h-13.34v26.8q0,4.29,2,6.4A6.83,6.83,0,0,0,1070.65,68.11Z" transform="translate(0 -0.34)"/><path class="cls-6" d="M1103.82,26.56a18.63,18.63,0,0,1,10,2.57,16.73,16.73,0,0,1,6.36,7.21,25,25,0,0,1,2.2,10.83v4.28h-31.46q.12,8,4,12.22t10.89,4.19a33.73,33.73,0,0,0,7.65-.78,43.07,43.07,0,0,0,6.89-2.33v6.07a33.84,33.84,0,0,1-6.83,2.24,39.73,39.73,0,0,1-8,.71A23.48,23.48,0,0,1,1094,71.09a18.47,18.47,0,0,1-7.59-7.88,27.31,27.31,0,0,1-2.7-12.72,30.21,30.21,0,0,1,2.48-12.73,19,19,0,0,1,7-8.3A19.2,19.2,0,0,1,1103.82,26.56Zm-.09,5.65a11.32,11.32,0,0,0-8.81,3.61q-3.29,3.61-3.9,10.1h24.1a20,20,0,0,0-1.27-7.17,10.28,10.28,0,0,0-3.72-4.82A11,11,0,0,0,1103.73,32.21Z" transform="translate(0 -0.34)"/><path class="cls-6" d="M1150.28,73.77q-8.65,0-13.7-5.91t-5-17.53q0-11.76,5.16-17.77t13.71-6a18.89,18.89,0,0,1,6.32,1,15.3,15.3,0,0,1,4.65,2.56,15.91,15.91,0,0,1,3.29,3.63h.5c-.12-.85-.23-2-.34-3.53s-.16-2.71-.16-3.66V8.27h6.9V72.94H1166l-1-6.49h-.29a16,16,0,0,1-3.27,3.7,15.05,15.05,0,0,1-4.69,2.64A19.09,19.09,0,0,1,1150.28,73.77Zm1.08-5.74q7.31,0,10.35-4.15t3-12.35V50.29q0-8.68-2.89-13.34t-10.49-4.66q-6.36,0-9.52,4.88t-3.16,13.32q0,8.4,3.14,13T1151.36,68Z" transform="translate(0 -0.34)"/><path class="cls-6" d="M453,114.31q11.76,0,17.18,4.59t5.43,13.16a21.31,21.31,0,0,1-1.27,7.33,15.57,15.57,0,0,1-4.1,6.11,19.71,19.71,0,0,1-7.41,4.16,36.28,36.28,0,0,1-11.25,1.51h-7.39v23.9h-7.07V114.31Zm-.67,6h-8.14v24.77h6.6a32.27,32.27,0,0,0,9.71-1.25,10.86,10.86,0,0,0,5.84-4.05,12.84,12.84,0,0,0,1.95-7.46q0-6.07-3.86-9T452.3,120.34Z" transform="translate(0 -0.34)"/><path class="cls-6" d="M508,128.69c.91,0,1.87.05,2.87.15a21.93,21.93,0,0,1,2.66.39l-.88,6.4a19.17,19.17,0,0,0-2.49-.46,21.5,21.5,0,0,0-2.58-.16,12.31,12.31,0,0,0-5.17,1.1,12.61,12.61,0,0,0-4.26,3.16,15.11,15.11,0,0,0-2.87,4.94,19,19,0,0,0-1,6.42v24.44h-6.94V129.52H493l.75,8.4H494a22.83,22.83,0,0,1,3.41-4.64,15.35,15.35,0,0,1,4.63-3.34A13.62,13.62,0,0,1,508,128.69Z" transform="translate(0 -0.34)"/><path class="cls-6" d="M561.31,152.21a31.92,31.92,0,0,1-1.45,10,20.63,20.63,0,0,1-4.2,7.44A18.18,18.18,0,0,1,549,174.3a22.84,22.84,0,0,1-8.79,1.6,21.27,21.27,0,0,1-8.37-1.6,18.47,18.47,0,0,1-6.57-4.63,21.22,21.22,0,0,1-4.28-7.44,30.75,30.75,0,0,1-1.52-10A29.17,29.17,0,0,1,522,139.47a18.2,18.2,0,0,1,7.25-8,21.86,21.86,0,0,1,11.24-2.76,21,21,0,0,1,10.91,2.78,18.74,18.74,0,0,1,7.27,8.05A28.4,28.4,0,0,1,561.31,152.21Zm-34.66,0a28.06,28.06,0,0,0,1.46,9.52,12.76,12.76,0,0,0,4.48,6.23,14.89,14.89,0,0,0,15.61,0,12.74,12.74,0,0,0,4.51-6.23,28.07,28.07,0,0,0,1.45-9.52,27.37,27.37,0,0,0-1.45-9.41,12.6,12.6,0,0,0-4.49-6.13,13.22,13.22,0,0,0-7.85-2.16q-7.11,0-10.42,4.69T526.65,152.21Z" transform="translate(0 -0.34)"/><path class="cls-6" d="M594.81,128.69q8.1,0,12.26,4t4.15,12.74v29.67h-6.81V145.85q0-5.68-2.6-8.52t-8-2.82q-7.56,0-10.64,4.28t-3.07,12.42v23.86h-6.9V129.52h5.57l1,6.57h.37a13.66,13.66,0,0,1,3.7-4.05,16.57,16.57,0,0,1,5-2.5A19.82,19.82,0,0,1,594.81,128.69Z" transform="translate(0 -0.34)"/><path class="cls-6" d="M663.05,129.52v45.55h-5.66l-1-6.4H656a13.25,13.25,0,0,1-3.65,4,16.3,16.3,0,0,1-5,2.43,21.42,21.42,0,0,1-6,.81,21,21,0,0,1-9.06-1.74,11.64,11.64,0,0,1-5.5-5.41,20.71,20.71,0,0,1-1.85-9.39V129.52h7v29.34q0,5.7,2.58,8.5t7.85,2.81a14.89,14.89,0,0,0,8.08-1.92,10.67,10.67,0,0,0,4.35-5.63,27.45,27.45,0,0,0,1.33-9.12v-24Z" transform="translate(0 -0.34)"/><path class="cls-6" d="M699.2,128.69q8.1,0,12.26,4t4.16,12.74v29.67H708.8V145.85c0-3.79-.86-6.63-2.6-8.52s-4.38-2.82-8-2.82q-7.57,0-10.64,4.28t-3.08,12.42v23.86h-6.9V129.52h5.57l1,6.57h.37a13.79,13.79,0,0,1,3.7-4.05,16.8,16.8,0,0,1,5-2.5A19.87,19.87,0,0,1,699.2,128.69Z" transform="translate(0 -0.34)"/><path class="cls-6" d="M748.07,175.9a22.45,22.45,0,0,1-10.84-2.53,17.43,17.43,0,0,1-7.32-7.73q-2.61-5.2-2.61-13.1,0-8.26,2.76-13.52a17.83,17.83,0,0,1,7.62-7.79,23.6,23.6,0,0,1,11.06-2.54,31,31,0,0,1,6.59.69,21.45,21.45,0,0,1,5.21,1.72l-2.08,5.78a34.23,34.23,0,0,0-4.8-1.5,21.63,21.63,0,0,0-5.09-.66,14.22,14.22,0,0,0-7.87,2,12.24,12.24,0,0,0-4.7,6,26.54,26.54,0,0,0-1.56,9.72A26.16,26.16,0,0,0,736,161.9a12.4,12.4,0,0,0,4.53,6,13.08,13.08,0,0,0,7.54,2.06,25.71,25.71,0,0,0,6.53-.77,37.41,37.41,0,0,0,5.28-1.81v6.15a21.6,21.6,0,0,1-5.1,1.79A31.47,31.47,0,0,1,748.07,175.9Z" transform="translate(0 -0.34)"/><path class="cls-6" d="M774.13,112.48a4.25,4.25,0,0,1,2.93,1.1,5.37,5.37,0,0,1,0,6.84,4.44,4.44,0,0,1-5.9,0,5.55,5.55,0,0,1,0-6.84A4.21,4.21,0,0,1,774.13,112.48Zm3.37,17v45.55h-6.9V129.52Z" transform="translate(0 -0.34)"/><path class="cls-6" d="M809.12,128.77q8.14,0,12.1,3.66t3.95,11.68v31h-5l-1.33-6.73h-.34a24.18,24.18,0,0,1-4,4.17,14.16,14.16,0,0,1-4.8,2.54,22.45,22.45,0,0,1-6.67.85,17.69,17.69,0,0,1-7.37-1.45,11.34,11.34,0,0,1-5.07-4.41,13.8,13.8,0,0,1-1.85-7.48,11.89,11.89,0,0,1,5.4-10.47q5.4-3.66,16.46-4l7.85-.33V145q0-5.89-2.53-8.27c-1.69-1.58-4.08-2.37-7.15-2.37a22.31,22.31,0,0,0-6.82,1,46.62,46.62,0,0,0-6.15,2.45l-2.12-5.23a37,37,0,0,1,7.07-2.7A30.79,30.79,0,0,1,809.12,128.77Zm9.23,23.86-6.94.29q-8.52.33-12,2.78a8,8,0,0,0-3.49,6.94c0,2.61.79,4.53,2.37,5.78a9.81,9.81,0,0,0,6.27,1.87,14.52,14.52,0,0,0,9.93-3.37q3.87-3.36,3.87-10.09Z" transform="translate(0 -0.34)"/><path class="cls-6" d="M854.09,170.25a22.1,22.1,0,0,0,3.49-.29,16.29,16.29,0,0,0,2.91-.71v5.36a14.56,14.56,0,0,1-3.35.92,24,24,0,0,1-4.17.37,16.42,16.42,0,0,1-6.57-1.27,9.93,9.93,0,0,1-4.72-4.3q-1.75-3-1.76-8.39v-27h-6.48v-3.36l6.52-2.7L842.7,119h4.16v10.55H860.2v5.4H846.86v26.81c0,2.85.66,5,2,6.4A6.86,6.86,0,0,0,854.09,170.25Z" transform="translate(0 -0.34)"/><path class="cls-6" d="M873.25,112.48a4.25,4.25,0,0,1,2.93,1.1,5.4,5.4,0,0,1,0,6.84,4.44,4.44,0,0,1-5.9,0,5.51,5.51,0,0,1,0-6.84A4.21,4.21,0,0,1,873.25,112.48Zm3.37,17v45.55h-6.9V129.52Z" transform="translate(0 -0.34)"/><path class="cls-6" d="M930.47,152.21a31.92,31.92,0,0,1-1.45,10,20.63,20.63,0,0,1-4.2,7.44,18.18,18.18,0,0,1-6.63,4.63,22.84,22.84,0,0,1-8.79,1.6,21.34,21.34,0,0,1-8.37-1.6,18.65,18.65,0,0,1-6.57-4.63,21.22,21.22,0,0,1-4.28-7.44,30.76,30.76,0,0,1-1.51-10,29.18,29.18,0,0,1,2.53-12.74,18.26,18.26,0,0,1,7.25-8,21.89,21.89,0,0,1,11.25-2.76,20.94,20.94,0,0,1,10.9,2.78,18.82,18.82,0,0,1,7.28,8.05A28.4,28.4,0,0,1,930.47,152.21Zm-34.66,0a28.06,28.06,0,0,0,1.46,9.52,12.77,12.77,0,0,0,4.49,6.23,14.87,14.87,0,0,0,15.6,0,12.74,12.74,0,0,0,4.51-6.23,28.06,28.06,0,0,0,1.46-9.52,27.36,27.36,0,0,0-1.46-9.41,12.54,12.54,0,0,0-4.49-6.13,13.22,13.22,0,0,0-7.85-2.16q-7.11,0-10.41,4.69T895.81,152.21Z" transform="translate(0 -0.34)"/><path class="cls-6" d="M964,128.69q8.1,0,12.26,4t4.16,12.74v29.67h-6.82V145.85q0-5.68-2.6-8.52t-8-2.82q-7.56,0-10.63,4.28t-3.08,12.42v23.86h-6.9V129.52H948l1,6.57h.37a13.79,13.79,0,0,1,3.7-4.05,16.68,16.68,0,0,1,5-2.5A19.87,19.87,0,0,1,964,128.69Z" transform="translate(0 -0.34)"/><path class="cls-6" d="M1036.41,175.07h-7.11V120.54h-19.12v-6.23h45.26v6.23h-19Z" transform="translate(0 -0.34)"/><path class="cls-6" d="M1084.28,128.69c.92,0,1.87.05,2.87.15a21.64,21.64,0,0,1,2.66.39l-.87,6.4a19.66,19.66,0,0,0-2.5-.46,21.46,21.46,0,0,0-2.57-.16,12.32,12.32,0,0,0-5.18,1.1,12.61,12.61,0,0,0-4.26,3.16,14.92,14.92,0,0,0-2.86,4.94,18.72,18.72,0,0,0-1,6.42v24.44h-6.94V129.52h5.73l.75,8.4h.29a22.83,22.83,0,0,1,3.41-4.64,15.35,15.35,0,0,1,4.63-3.34A13.62,13.62,0,0,1,1084.28,128.69Z" transform="translate(0 -0.34)"/><path class="cls-6" d="M1115.41,128.77q8.14,0,12.09,3.66t4,11.68v31h-5l-1.33-6.73h-.33a24.18,24.18,0,0,1-4,4.17,14.16,14.16,0,0,1-4.8,2.54,22.5,22.5,0,0,1-6.67.85,17.69,17.69,0,0,1-7.37-1.45,11.41,11.41,0,0,1-5.08-4.41,13.89,13.89,0,0,1-1.84-7.48,11.89,11.89,0,0,1,5.4-10.47q5.4-3.66,16.46-4l7.85-.33V145q0-5.89-2.54-8.27t-7.14-2.37a22.26,22.26,0,0,0-6.82,1,46.62,46.62,0,0,0-6.15,2.45L1100,132.6a37,37,0,0,1,7.07-2.7A30.74,30.74,0,0,1,1115.41,128.77Zm9.23,23.86-6.94.29q-8.52.33-12,2.78a8,8,0,0,0-3.5,6.94c0,2.61.79,4.53,2.37,5.78a9.83,9.83,0,0,0,6.28,1.87,14.56,14.56,0,0,0,9.93-3.37q3.87-3.36,3.87-10.09Z" transform="translate(0 -0.34)"/><path class="cls-6" d="M1149.2,112.48a4.27,4.27,0,0,1,2.93,1.1,5.4,5.4,0,0,1,0,6.84,4.19,4.19,0,0,1-2.93,1.12,4.12,4.12,0,0,1-3-1.12,5.51,5.51,0,0,1,0-6.84A4.19,4.19,0,0,1,1149.2,112.48Zm3.36,17v45.55h-6.9V129.52Z" transform="translate(0 -0.34)"/><path class="cls-6" d="M1188.72,128.69q8.1,0,12.26,4t4.16,12.74v29.67h-6.82V145.85q0-5.68-2.6-8.52t-8-2.82q-7.56,0-10.63,4.28t-3.08,12.42v23.86h-6.9V129.52h5.57l1,6.57h.37a13.79,13.79,0,0,1,3.7-4.05,16.68,16.68,0,0,1,5-2.5A19.87,19.87,0,0,1,1188.72,128.69Z" transform="translate(0 -0.34)"/><path class="cls-6" d="M1222.88,112.48a4.25,4.25,0,0,1,2.93,1.1,5.37,5.37,0,0,1,0,6.84,4.44,4.44,0,0,1-5.9,0,5.51,5.51,0,0,1,0-6.84A4.21,4.21,0,0,1,1222.88,112.48Zm3.37,17v45.55h-6.9V129.52Z" transform="translate(0 -0.34)"/><path class="cls-6" d="M1262.4,128.69q8.1,0,12.26,4t4.16,12.74v29.67H1272V145.85c0-3.79-.86-6.63-2.6-8.52s-4.38-2.82-8-2.82q-7.58,0-10.64,4.28t-3.08,12.42v23.86h-6.9V129.52h5.57l1,6.57h.38a13.62,13.62,0,0,1,3.69-4.05,16.8,16.8,0,0,1,5-2.5A19.87,19.87,0,0,1,1262.4,128.69Z" transform="translate(0 -0.34)"/><path class="cls-6" d="M1305.75,195.52q-9,0-13.84-3.35a10.73,10.73,0,0,1-4.86-9.37,10.58,10.58,0,0,1,2.72-7.32,13.48,13.48,0,0,1,7.54-4,8,8,0,0,1-3-2.49,6.1,6.1,0,0,1-1.27-3.82,7.18,7.18,0,0,1,1.39-4.39,14.68,14.68,0,0,1,4.26-3.63,12.39,12.39,0,0,1-5.8-4.93,14.66,14.66,0,0,1-2.22-8.08,16.28,16.28,0,0,1,2-8.38,13.07,13.07,0,0,1,5.9-5.29,21.71,21.71,0,0,1,9.35-1.83c.8,0,1.61,0,2.43.1s1.6.17,2.35.29a16,16,0,0,1,2,.44h15.63v4.44l-8.4,1a14.46,14.46,0,0,1,2.08,3.91,14.81,14.81,0,0,1,.83,5.07,13.65,13.65,0,0,1-4.61,10.83q-4.62,4-12.68,4a22.85,22.85,0,0,1-3.9-.34,9.83,9.83,0,0,0-3.1,2.5,5,5,0,0,0-1.06,3.16,2.84,2.84,0,0,0,.81,2.12,4.93,4.93,0,0,0,2.35,1.14,17.09,17.09,0,0,0,3.7.35h8q7.44,0,11.41,3.12t4,9.1a13,13,0,0,1-6.16,11.59Q1317.38,195.52,1305.75,195.52Zm.21-5.41a32.56,32.56,0,0,0,9.37-1.14,11.77,11.77,0,0,0,5.57-3.28,7.56,7.56,0,0,0,1.85-5.09,6,6,0,0,0-1.25-4.14,6.4,6.4,0,0,0-3.66-1.87,30.79,30.79,0,0,0-5.9-.48H1304a13.79,13.79,0,0,0-5.36,1,7.58,7.58,0,0,0-3.51,2.83,8.25,8.25,0,0,0-1.22,4.65,6.22,6.22,0,0,0,3.11,5.63C1299.14,189.47,1302.1,190.11,1306,190.11Zm1.78-36.4q5,0,7.44-2.5c1.66-1.66,2.5-4.08,2.5-7.27,0-3.41-.85-6-2.54-7.67s-4.18-2.55-7.48-2.55-5.59.88-7.29,2.64-2.56,4.33-2.56,7.71q0,4.65,2.58,7.14C1302.1,152.88,1304.56,153.71,1307.74,153.71Z" transform="translate(0 -0.34)"/><path class="cls-6" d="M439.59,214.62a4.22,4.22,0,0,1,2.93,1.1,5.39,5.39,0,0,1,0,6.83,4.2,4.2,0,0,1-2.93,1.13,4.15,4.15,0,0,1-3-1.13,5.53,5.53,0,0,1,0-6.83A4.18,4.18,0,0,1,439.59,214.62Zm3.36,17V277.2h-6.9V231.66Z" transform="translate(0 -0.34)"/><path class="cls-6" d="M479.11,230.82q8.1,0,12.26,4t4.15,12.74V277.2h-6.81V248q0-5.7-2.6-8.52t-8-2.83q-7.56,0-10.64,4.28t-3.07,12.43V277.2h-6.9V231.66h5.57l1,6.56h.37a13.78,13.78,0,0,1,3.7-4.05,16.66,16.66,0,0,1,5-2.49A19.83,19.83,0,0,1,479.11,230.82Z" transform="translate(0 -0.34)"/><path class="cls-6" d="M532.88,277.2V216.45H540V277.2Z" transform="translate(0 -0.34)"/><path class="cls-6" d="M573.86,278A22.52,22.52,0,0,1,563,275.5a17.41,17.41,0,0,1-7.31-7.73q-2.62-5.19-2.62-13.09,0-8.27,2.77-13.53a17.88,17.88,0,0,1,7.62-7.79,23.57,23.57,0,0,1,11.06-2.54,30.92,30.92,0,0,1,6.58.69,22,22,0,0,1,5.22,1.72L584.25,239a35.68,35.68,0,0,0-4.8-1.49,21.15,21.15,0,0,0-5.09-.67,14.2,14.2,0,0,0-7.88,2,12.2,12.2,0,0,0-4.69,6,26.6,26.6,0,0,0-1.56,9.73,26.11,26.11,0,0,0,1.52,9.43,12.4,12.4,0,0,0,4.53,6,13.08,13.08,0,0,0,7.54,2.06,25.58,25.58,0,0,0,6.52-.77,35,35,0,0,0,5.28-1.81v6.15a20.93,20.93,0,0,1-5.09,1.79A30.83,30.83,0,0,1,573.86,278Z" transform="translate(0 -0.34)"/><path class="cls-6" d="M613.92,230.82a18.55,18.55,0,0,1,10,2.58,16.73,16.73,0,0,1,6.36,7.21,25.1,25.1,0,0,1,2.2,10.83v4.28H601q.12,8,4,12.22c2.58,2.79,6.2,4.19,10.89,4.19a33,33,0,0,0,7.64-.79,41.8,41.8,0,0,0,6.9-2.32v6.06a33.47,33.47,0,0,1-6.83,2.25,39.79,39.79,0,0,1-8,.7,23.37,23.37,0,0,1-11.45-2.68,18.39,18.39,0,0,1-7.59-7.87,27.31,27.31,0,0,1-2.7-12.72A30.29,30.29,0,0,1,596.32,242a18.4,18.4,0,0,1,17.6-11.2Zm-.08,5.66a11.32,11.32,0,0,0-8.81,3.61q-3.28,3.61-3.91,10.1h24.11A20,20,0,0,0,624,243a10.34,10.34,0,0,0-3.72-4.82A11,11,0,0,0,613.84,236.48Z" transform="translate(0 -0.34)"/><path class="cls-6" d="M651.12,277.2h-6.94V212.54h6.94Z" transform="translate(0 -0.34)"/><path class="cls-6" d="M682.7,230.91q8.14,0,12.1,3.65t3.94,11.68v31h-5l-1.33-6.73h-.34a24.26,24.26,0,0,1-4,4.18,14.14,14.14,0,0,1-4.8,2.53,22.45,22.45,0,0,1-6.67.85,17.69,17.69,0,0,1-7.37-1.45,11.34,11.34,0,0,1-5.07-4.41,13.78,13.78,0,0,1-1.85-7.48,11.89,11.89,0,0,1,5.4-10.47q5.4-3.66,16.46-4l7.85-.33v-2.78q0-5.91-2.53-8.27c-1.69-1.58-4.08-2.37-7.15-2.37a22,22,0,0,0-6.82,1,46.62,46.62,0,0,0-6.15,2.45l-2.12-5.24a38.36,38.36,0,0,1,7.07-2.7A30.79,30.79,0,0,1,682.7,230.91Zm9.23,23.85-6.94.29q-8.52.33-12,2.79a8,8,0,0,0-3.49,6.94c0,2.6.79,4.53,2.37,5.77a9.81,9.81,0,0,0,6.27,1.87,14.56,14.56,0,0,0,9.93-3.36q3.87-3.37,3.87-10.1Z" transform="translate(0 -0.34)"/><path class="cls-6" d="M734.53,230.82q8.1,0,12.26,4t4.15,12.74V277.2h-6.81V248q0-5.7-2.6-8.52c-1.73-1.89-4.39-2.83-8-2.83q-7.56,0-10.64,4.28t-3.07,12.43V277.2H713V231.66h5.57l1,6.56h.37a13.78,13.78,0,0,1,3.7-4.05,16.55,16.55,0,0,1,5-2.49A19.83,19.83,0,0,1,734.53,230.82Z" transform="translate(0 -0.34)"/><path class="cls-6" d="M781.36,278q-8.64,0-13.69-5.9t-5-17.53q0-11.76,5.15-17.77a17.2,17.2,0,0,1,13.72-6,18.81,18.81,0,0,1,6.31,1,15.36,15.36,0,0,1,4.66,2.56,16.09,16.09,0,0,1,3.28,3.63h.5c-.11-.86-.22-2-.33-3.53s-.17-2.71-.17-3.66V212.54h6.9V277.2h-5.57l-1-6.48h-.29a16,16,0,0,1-3.26,3.7,15.1,15.1,0,0,1-4.7,2.64A19,19,0,0,1,781.36,278Zm1.08-5.73q7.32,0,10.35-4.16t3-12.34v-1.25q0-8.69-2.89-13.34t-10.5-4.65q-6.36,0-9.51,4.88t-3.16,13.32q0,8.4,3.14,13T782.44,272.3Z" transform="translate(0 -0.34)"/><path class="cls-6" d="M820.76,214.62a4.21,4.21,0,0,1,2.93,1.1,5.36,5.36,0,0,1,0,6.83,4.42,4.42,0,0,1-5.9,0,5.5,5.5,0,0,1,0-6.83A4.17,4.17,0,0,1,820.76,214.62Zm3.37,17V277.2h-6.9V231.66Z" transform="translate(0 -0.34)"/><path class="cls-6" d="M857,278a22.49,22.49,0,0,1-10.85-2.53,17.36,17.36,0,0,1-7.31-7.73q-2.62-5.19-2.62-13.09,0-8.27,2.76-13.53a17.9,17.9,0,0,1,7.63-7.79,23.53,23.53,0,0,1,11-2.54,31,31,0,0,1,6.59.69,22,22,0,0,1,5.22,1.72L867.35,239a36.61,36.61,0,0,0-4.8-1.49,21.22,21.22,0,0,0-5.09-.67,14.18,14.18,0,0,0-7.88,2,12.15,12.15,0,0,0-4.69,6,26.6,26.6,0,0,0-1.56,9.73,26.12,26.12,0,0,0,1.51,9.43,12.4,12.4,0,0,0,4.53,6,13.11,13.11,0,0,0,7.55,2.06,25.63,25.63,0,0,0,6.52-.77,35,35,0,0,0,5.28-1.81v6.15a21.08,21.08,0,0,1-5.09,1.79A30.89,30.89,0,0,1,857,278Z" transform="translate(0 -0.34)"/></g></g></svg>