<svg width="166" height="166" viewBox="0 0 166 166" fill="none" xmlns="http://www.w3.org/2000/svg">
<circle cx="83" cy="83" r="82" fill="white" stroke="#4945FF" stroke-width="2"/>
<mask id="mask0_12577_14097" style="mask-type:alpha" maskUnits="userSpaceOnUse" x="2" y="2" width="162" height="162">
<circle cx="83" cy="83" r="81" fill="#C4C4C4"/>
</mask>
<g mask="url(#mask0_12577_14097)">
<g clip-path="url(#clip0_12577_14097)">
<path d="M96.5452 56.0522C96.5452 56.0522 103.403 59.2095 103.1 67.3408C102.815 74.9662 101.55 77.8196 93.3474 81.109C93.3474 81.109 101.851 73.9645 101.927 67.4742C101.983 62.6514 96.5452 56.0522 96.5452 56.0522Z" fill="#BBAA98"/>
<path d="M-14.2383 124.457C-14.2383 124.457 -11.6898 159.829 4.44641 171.91C16.9358 181.261 23.2456 183.143 35.9203 184.264C49.1921 185.44 116.89 186.285 122.149 184.264C133.04 180.077 159.418 162.77 160.617 153.781C161.816 144.791 67.6939 131.633 49.1093 135.222C30.5248 138.81 -14.2383 124.457 -14.2383 124.457Z" fill="#C1C1C1"/>
<path d="M-14.2383 124.457C-14.2383 124.457 -11.6898 159.829 4.44641 171.91C16.9358 181.261 23.2456 183.143 35.9203 184.264C49.1921 185.44 116.89 186.285 122.149 184.264C133.04 180.077 159.418 162.77 160.617 153.781C161.816 144.791 67.6939 131.633 49.1093 135.222C30.5248 138.81 -14.2383 124.457 -14.2383 124.457Z" stroke="black" stroke-miterlimit="10"/>
<path d="M104.788 191.777C104.888 190.979 103.689 190.836 104.089 189.441C104.489 188.045 104.685 185.396 105.164 184.612C105.516 184.036 107.686 187.895 107.686 187.895C107.686 187.895 106.756 183.272 106.599 182.4C106.2 180.184 109.945 178.999 110.584 178.426C111.862 177.278 111.748 180.612 111.748 180.612C111.748 180.612 113.697 177.473 116.095 176.376C116.756 176.074 116.642 178.026 116.642 178.026C116.642 178.026 119.166 174.526 119.526 174.139C120.395 173.202 121.275 172.595 121.674 171.797C122.073 170.999 121.974 170.102 123.173 168.906C124.372 167.71 124.172 164.62 124.772 163.622C125.371 162.626 127.269 159.636 128.268 158.24C129.268 156.845 131.365 154.453 132.165 153.456C132.965 152.459 133.964 149.369 134.563 148.672C135.163 147.973 140.758 133.52 144.355 124.35L-11.6836 126.742C-11.6836 126.742 -10.2945 153.068 -5.74492 161.137C-1.24866 169.111 2.07379 174.189 4.07193 175.385C6.07007 176.581 8.46868 176.98 10.067 178.575C11.6652 180.17 10.245 180.874 13.0423 183.665C13.0423 183.665 12.2899 182.063 13.0393 181.091C13.7887 180.12 15.6669 184.265 15.6669 184.265C15.6669 184.265 15.3378 181.216 16.062 180.37C16.7862 179.522 16.4463 181.713 17.6453 183.182C17.6453 183.182 16.6447 179.597 18.9348 181.073C29.8619 188.114 46.6084 185.887 48.2109 186.057C50.0843 186.257 53.0603 185.854 53.8186 186.231C54.2683 186.456 57.3467 189.464 57.3467 189.464C57.3467 189.464 56.4966 186.669 58.6368 186.35C59.9474 186.155 61.4461 188.491 61.4461 188.491C61.4461 188.491 61.1074 187.119 61.3652 187.071C62.9491 186.778 64.5629 188.848 64.5629 188.848C64.5629 188.848 64.3861 187.116 65.3968 186.897C67.0419 186.54 67.16 188.467 67.16 188.467C67.16 188.467 67.4447 186.35 69.0436 185.353C70.6425 184.356 72.0165 184.954 74.0147 184.755C76.0128 184.556 81.8436 182.686 83.1391 183.096C84.1631 183.42 74.8138 187.147 74.8138 187.147C74.8138 187.147 79.6884 186.342 80.5349 186.624C81.2843 186.872 77.6117 189.539 77.6117 189.539C77.6117 189.539 82.1559 188.326 82.8837 188.467C83.6583 188.616 77.6117 191.931 77.6117 191.931C77.6117 191.931 82.9005 190.377 83.6589 190.76C84.199 191.032 81.3856 193.152 81.3856 193.152C81.3856 193.152 93.8432 185.307 94.4811 185.932C94.9361 186.378 93.1442 189.568 93.1442 189.568C93.1442 189.568 94.7665 187.867 95.7778 187.778C96.285 187.734 95.3744 188.74 94.5746 189.736C93.6148 190.93 93.2221 192.898 93.2221 192.898C93.2221 192.898 94.7862 191.065 96.2874 190.35C97.5254 189.762 94.9415 195.071 94.9415 195.071C94.9415 195.071 97.2736 192.061 98.3329 191.997C99.5775 191.923 96.0374 196.841 96.0374 196.841C96.0374 196.841 99.4666 193.668 100.367 192.924C101.323 192.135 102.257 191.104 102.847 190.996" fill="#E0DFDE"/>
<path d="M104.788 191.777C104.888 190.979 103.689 190.836 104.089 189.441C104.489 188.045 104.685 185.396 105.164 184.612C105.516 184.036 107.686 187.895 107.686 187.895C107.686 187.895 106.756 183.272 106.599 182.4C106.2 180.184 109.945 178.999 110.584 178.426C111.862 177.278 111.748 180.612 111.748 180.612C111.748 180.612 113.697 177.473 116.095 176.376C116.756 176.074 116.642 178.026 116.642 178.026C116.642 178.026 119.166 174.526 119.526 174.139C120.395 173.202 121.275 172.595 121.674 171.797C122.073 170.999 121.974 170.102 123.173 168.906C124.372 167.71 124.172 164.62 124.772 163.622C125.371 162.626 127.269 159.636 128.268 158.24C129.268 156.845 131.365 154.453 132.165 153.456C132.965 152.459 133.964 149.369 134.563 148.672C135.163 147.973 140.758 133.52 144.355 124.35L-11.6836 126.742C-11.6836 126.742 -10.2945 153.068 -5.74492 161.137C-1.24866 169.111 2.07379 174.189 4.07193 175.385C6.07007 176.581 8.46868 176.98 10.067 178.575C11.6652 180.17 10.245 180.874 13.0423 183.665C13.0423 183.665 12.2899 182.063 13.0393 181.091C13.7887 180.12 15.6669 184.265 15.6669 184.265C15.6669 184.265 15.3378 181.216 16.062 180.37C16.7862 179.522 16.4463 181.713 17.6453 183.182C17.6453 183.182 16.6447 179.597 18.9348 181.073C29.8619 188.114 46.6084 185.887 48.2109 186.057C50.0843 186.257 53.0603 185.854 53.8186 186.231C54.2683 186.456 57.3467 189.464 57.3467 189.464C57.3467 189.464 56.4966 186.669 58.6368 186.35C59.9474 186.155 61.4461 188.491 61.4461 188.491C61.4461 188.491 61.1074 187.119 61.3652 187.071C62.9491 186.778 64.5629 188.848 64.5629 188.848C64.5629 188.848 64.3861 187.116 65.3968 186.897C67.0419 186.54 67.16 188.467 67.16 188.467C67.16 188.467 67.4447 186.35 69.0436 185.353C70.6425 184.356 72.0165 184.954 74.0147 184.755C76.0128 184.556 81.8436 182.686 83.1391 183.096C84.1631 183.42 74.8138 187.147 74.8138 187.147C74.8138 187.147 79.6884 186.342 80.5349 186.624C81.2843 186.872 77.6117 189.539 77.6117 189.539C77.6117 189.539 82.1559 188.326 82.8837 188.467C83.6583 188.616 77.6117 191.931 77.6117 191.931C77.6117 191.931 82.9005 190.377 83.6589 190.76C84.199 191.032 81.3856 193.152 81.3856 193.152C81.3856 193.152 93.8432 185.307 94.4811 185.932C94.9361 186.378 93.1442 189.568 93.1442 189.568C93.1442 189.568 94.7665 187.867 95.7778 187.778C96.285 187.734 95.3744 188.74 94.5746 189.736C93.6148 190.93 93.2221 192.898 93.2221 192.898C93.2221 192.898 94.7862 191.065 96.2874 190.35C97.5254 189.762 94.9415 195.071 94.9415 195.071C94.9415 195.071 97.2736 192.061 98.3329 191.997C99.5775 191.923 96.0374 196.841 96.0374 196.841C96.0374 196.841 99.4666 193.668 100.367 192.924C101.323 192.135 102.257 191.104 102.847 190.996" stroke="black" stroke-width="0.5" stroke-miterlimit="10"/>
<path d="M-5.86665 120.896C-5.86665 120.896 -14.828 118.931 -17.6798 120.896C-20.5317 122.861 -24.1976 122.861 -24.1976 122.861C-24.1976 122.861 -28.3324 124.475 -31.2718 125.508C-34.2105 126.541 -25.4194 125.218 -25.4194 125.218C-25.4194 125.218 -34.3712 130.363 -30.9684 129.477C-29.318 129.048 -29.493 127.968 -26.6418 129.147C-23.79 130.326 -22.1605 132.29 -20.124 132.683C-18.0875 133.076 -12.7915 135.04 -12.7915 135.04L-5.86665 120.896ZM8.8913 108.391C8.8913 108.391 -21.8026 100.021 -23.6467 98.8032C-25.4896 97.5849 -26.4716 97.4659 -28.1076 97.2667C-29.7436 97.0676 -33.8185 95.0814 -35.2914 94.9026C-36.7638 94.7237 -40.6798 94.9097 -41.627 94.1323C-42.5742 93.3542 -48.6244 92.0229 -47.7227 93.472C-46.5855 95.3003 -43.8661 96.0269 -42.2301 96.2261C-40.594 96.4253 -37.536 97.5724 -36.7177 97.6716C-35.8993 97.7715 -34.2261 98.1453 -33.5906 98.3881C-32.9564 98.6309 -30.1903 98.0066 -29.2682 98.616C-28.3468 99.2254 -27.5447 100.813 -28.8336 100.491C-30.1225 100.169 -33.4456 99.217 -34.9185 99.0382C-36.3909 98.8588 -42.1665 99.5328 -43.4746 99.3737C-44.784 99.2147 -47.7527 98.5227 -48.5794 98.753C-49.4061 98.9838 -50.0997 99.2308 -51.1417 99.601C-52.1824 99.9712 -54.1866 100.059 -52.6296 100.911C-51.0727 101.762 -48.0806 101.737 -46.5087 101.928C-44.9374 102.119 -41.6024 103.079 -40.4975 103.545C-39.392 104.011 -38.0372 105.775 -37.6828 106.331C-37.1889 107.104 -36.3106 108.692 -35.572 109.445C-34.834 110.198 -30.4558 111.061 -29.514 111.507C-28.5722 111.952 -21.9657 113.455 -20.1438 113.64C-18.506 113.805 -17.2866 116.084 -12.5955 117.096C-7.90316 118.11 8.74682 109.59 8.74682 109.59" fill="#3A3535"/>
<path d="M-22.0672 109.986C-25.9514 108.541 -31.9392 102.384 -31.9392 102.384C-31.9392 102.384 -30.6623 103.49 -29.6917 103.747C-27.109 104.43 -24.8447 104.571 -22.9934 104.361C-22.4791 104.303 -29.8637 101.075 -29.4225 101.207C-26.7655 102.004 -19.3287 103.336 -18.6464 102.771C-18.3395 102.516 -21.3916 100.825 -20.9395 100.843C-19.6818 100.895 -12.6724 103.645 -12.2713 103.27C-11.9914 103.008 -4.36149 109.293 3.80313 106.324C4.17243 106.189 9.96722 104.587 9.96722 104.587C9.96722 104.587 8.98343 104.343 8.03742 105.071C7.0914 105.798 11.0134 105.706 11.0134 105.706C10.6417 105.774 -6.8866 113.698 -11.0064 112.855C-15.125 112.013 -22.0672 109.986 -22.0672 109.986Z" fill="#4C4233"/>
<path d="M8.89117 108.495C8.89117 108.495 -21.8028 100.125 -23.6468 98.9078C-25.4897 97.6895 -26.4717 97.5705 -28.1077 97.3713C-29.7438 97.1722 -33.8186 95.186 -35.2916 95.0072C-36.7639 94.8283 -40.6799 95.0143 -41.6271 94.2369C-42.5743 93.4588 -50.0273 91.4367 -47.1096 94.2536C-45.8806 95.4402 -44.3495 95.9479 -42.7128 96.1477C-41.0768 96.3468 -38.5882 97.4006 -37.7699 97.4999C-36.9516 97.5998 -34.4559 98.098 -33.8204 98.3408C-33.1861 98.5836 -30.1904 98.1117 -29.2684 98.7212C-28.3469 99.3306 -27.8619 100.577 -28.3721 100.612C-29.6982 100.701 -33.4463 99.2176 -34.9193 99.0388C-36.3917 98.8593 -42.1673 99.638 -43.4754 99.4789C-44.7847 99.3198 -47.7534 98.6279 -48.5801 98.8581C-49.4069 99.089 -50.1005 99.336 -51.1424 99.7062C-52.1832 100.076 -54.1873 100.164 -52.6304 101.016C-51.0735 101.868 -48.0814 101.738 -46.5095 101.929C-44.9382 102.119 -41.6031 103.185 -40.4982 103.65C-39.3928 104.116 -38.1074 105.93 -37.6836 106.436C-36.8179 107.467 -36.3113 108.797 -35.5727 109.55C-34.8347 110.303 -30.4566 111.166 -29.5148 111.612C-28.5729 112.058 -23.199 113.347 -20.1445 113.745C-17.9941 114.025 -17.2873 116.189 -12.5962 117.202C-7.90389 118.215 8.74609 109.695 8.74609 109.695" stroke="black" stroke-width="0.5" stroke-miterlimit="10"/>
<path d="M78.5192 130.004C78.5192 130.004 77.6091 130.871 77.4227 130.663C77.2039 130.422 77.304 129.275 77.304 129.275C77.304 129.275 76.262 129.884 76.123 129.766C75.9197 129.595 75.9173 128.641 75.9173 128.641C75.9173 128.641 75.1086 129.702 74.9791 129.534C74.8532 129.372 74.858 128.8 74.858 128.8C74.858 128.8 74.1014 129.498 73.8862 129.269C73.7214 129.093 73.8796 128.511 73.8796 128.511C73.8796 128.511 72.8113 129.471 72.6944 129.26C72.6201 129.125 72.897 128.262 72.897 128.262C72.897 128.262 71.5506 129.245 71.3413 129.116C71.1219 128.979 71.6806 127.867 71.6806 127.867C71.6806 127.867 70.4151 128.991 70.2874 128.729C70.2053 128.563 70.4894 127.641 70.4894 127.641C70.4894 127.641 69.6591 128.125 69.6483 127.895C69.6423 127.756 70.0662 126.999 70.0662 126.999C70.0662 126.999 68.6526 127.66 68.6148 127.406C68.583 127.201 69.1957 126.316 69.1957 126.316C69.1957 126.316 67.9134 126.736 67.7623 126.457C67.6448 126.242 68.1658 125.307 68.1658 125.307C68.1658 125.307 66.9572 126.196 66.8816 125.988C66.7485 125.615 67.3091 124.566 67.3091 124.566C67.3091 124.566 65.7552 125.478 65.6676 125.234C65.5891 125.017 66.2186 123.698 66.2186 123.698C66.2186 123.698 64.4734 124.702 64.3092 124.45C64.1857 124.259 64.7378 122.946 64.7378 122.946C64.7378 122.946 63.3554 123.829 63.2978 123.501C63.2487 123.23 63.6959 121.845 63.6959 121.845C63.6959 121.845 62.4693 122.801 62.3968 122.463C62.359 122.284 63.0358 120.94 63.0358 120.94C63.0358 120.94 62.2517 121.395 62.2457 121.029C62.2403 120.766 62.5886 119.963 62.5886 119.963C62.5886 119.963 61.407 120.671 61.4334 120.421C61.4609 120.162 61.9519 119.026 61.9519 119.026C61.9519 119.026 60.9586 119.59 60.8476 119.222C60.7475 118.891 61.0359 117.197 61.0359 117.197C61.0359 117.197 60.1468 118.497 59.9538 118.192C59.7613 117.889 59.467 116.114 59.467 116.114C59.467 116.114 58.9346 117.026 58.9274 116.699C58.9202 116.373 58.9376 115.023 58.9376 115.023C58.9376 115.023 58.2722 115.986 58.1373 115.454C58.003 114.923 58.1583 113.776 58.1583 113.776C58.1583 113.776 57.0756 114.61 57.0186 114.398C56.9395 114.103 57.5983 112.154 57.5983 112.154C57.5983 112.154 56.8238 112.568 56.8208 112.276C56.8166 111.986 57.3933 110.864 57.3933 110.864C57.3933 110.864 56.6877 111.364 56.6751 111.129C56.6619 110.894 56.9185 109.52 56.9185 109.52C56.9185 109.52 56.3142 110.522 56.2381 110.175C56.1583 109.819 56.6673 107.852 56.6673 107.852C56.6673 107.852 55.5409 108.869 55.4809 108.53C55.4216 108.19 56.5066 106.761 56.5066 106.761C56.5066 106.761 55.2387 107.079 55.2579 106.712C55.2783 106.347 55.6913 105.604 55.6913 105.604C55.6913 105.604 54.4749 105.688 54.4576 105.29C54.4396 104.892 56.6391 104.25 56.6391 104.25C56.6391 104.25 55.0127 104.312 55.0702 103.979C55.1284 103.645 56.2866 102.599 56.2866 102.599C56.2866 102.599 54.9353 103.161 55.0457 102.841C55.1542 102.519 56.0091 101.298 56.0091 101.298C56.0091 101.298 54.8292 102.036 54.8083 101.473C54.7873 100.912 55.4947 99.7838 55.4947 99.7838C55.4947 99.7838 54.2363 100.61 54.3023 100.22C54.3694 99.8317 55.0139 98.8652 55.0139 98.8652C55.0139 98.8652 53.677 99.6427 53.7711 99.2145C53.8658 98.7863 54.5774 97.4532 54.5774 97.4532C54.5774 97.4532 53.6908 98.0584 53.7345 97.745C53.7777 97.431 54.37 96.7307 54.37 96.7307C54.37 96.7307 53.0871 97.0877 53.2478 96.821C53.409 96.5537 54.3562 95.8916 54.3562 95.8916C54.3562 95.8916 53.0637 95.6183 53.3119 95.3557C53.5607 95.0926 54.4845 94.9496 54.4845 94.9496C54.4845 94.9496 53.0079 94.0723 53.0331 93.9664C53.0577 93.8623 54.394 93.6345 54.394 93.6345C54.394 93.6345 52.9678 93.3097 52.978 93.0197C52.9942 92.5609 54.6914 91.7924 54.6914 91.7924C54.6914 91.7924 52.2927 92.5053 52.5919 91.9246C52.7885 91.5424 54.4336 90.5915 54.4336 90.5915C54.4336 90.5915 51.9151 91.2314 52.2508 90.5496C52.517 90.006 54.1992 87.6227 54.1992 87.6227C54.1992 87.6227 55.0882 87.5659 55.6655 86.8835C56.3514 86.0749 57.8933 85.1431 57.8933 85.1431L115.84 81.3208C115.84 81.3208 118.722 81.886 119.677 82.3459C120.483 82.734 118.623 83.6521 118.623 83.6521C118.623 83.6521 120.252 83.9714 120.624 84.0564C121.336 84.2185 119.64 85.1443 119.64 85.1443C119.64 85.1443 121.531 85.344 121.866 85.6132C122.376 86.0216 119.897 86.3464 119.897 86.3464C119.897 86.3464 121.824 86.6592 122.026 87.0712C122.155 87.332 120.985 88.2082 120.985 88.2082C120.985 88.2082 122.298 87.8721 122.363 87.9576C122.43 88.0437 121.44 89.4462 121.44 89.4462C121.44 89.4462 122.961 89.3038 123.297 89.4432C123.632 89.5826 122.563 90.3582 122.563 90.3582C122.563 90.3582 123.698 90.5771 123.954 90.7554C124.21 90.9342 122.893 91.1292 122.893 91.1292C122.893 91.1292 123.719 91.5281 123.887 91.7972C124.054 92.0657 122.997 91.8744 122.997 91.8744C122.997 91.8744 124.192 92.8002 124.453 93.1536C124.716 93.5059 123.177 93.3408 123.177 93.3408C123.177 93.3408 124.159 93.9598 124.378 94.2882C124.598 94.6165 123.112 94.3749 123.112 94.3749C123.112 94.3749 124.219 95.1171 124.429 95.638C124.639 96.1595 123.261 95.9652 123.261 95.9652C123.261 95.9652 124.541 96.7343 124.772 96.9831C125.003 97.2319 123.539 97.2666 123.539 97.2666C123.539 97.2666 125.026 97.751 125.214 98.0327C125.403 98.3138 123.892 98.9184 123.892 98.9184C123.892 98.9184 126.163 98.6092 126.31 98.9806C126.457 99.3508 125.312 99.7683 125.312 99.7683C125.312 99.7683 127.513 99.7234 127.681 100.049C127.849 100.376 126.561 100.601 126.561 100.601C126.561 100.601 128.136 101.466 128.22 101.799C128.304 102.134 126.859 101.663 126.859 101.663C126.859 101.663 128.127 103.251 128.201 103.61C128.273 103.957 127.311 103.287 127.311 103.287C127.311 103.287 128.108 104.437 128.192 104.657C128.275 104.877 127.427 104.708 127.427 104.708C127.427 104.708 128.414 105.498 128.528 105.765C128.644 106.031 127.768 105.97 127.768 105.97C127.768 105.97 129.166 107.48 129.214 107.782C129.248 107.999 127.919 107.678 127.919 107.678C127.919 107.678 128.53 108.663 128.625 109.202C128.719 109.741 127.718 109.134 127.718 109.134C127.718 109.134 128.285 110.359 128.411 110.661C128.537 110.962 127.678 110.346 127.678 110.346C127.678 110.346 128.137 112.086 128.085 112.441C128.033 112.797 126.69 111.973 126.69 111.973C126.69 111.973 127.647 113.401 127.691 113.744C127.739 114.126 126.602 114.014 126.602 114.014C126.602 114.014 127.515 114.853 127.645 115.078C127.772 115.297 126.404 115.129 126.404 115.129C126.404 115.129 127.049 115.721 127.154 115.964C127.296 116.3 126.395 116.204 126.395 116.204C126.395 116.204 127.562 117.155 127.6 117.334C127.672 117.673 126.162 117.3 126.162 117.3C126.162 117.3 127.136 118.381 127.204 118.648C127.285 118.971 125.661 118.727 125.661 118.727C125.661 118.727 126.702 119.702 126.668 119.926C126.62 120.225 124.617 120.018 124.617 120.018C124.617 120.018 125.73 120.964 125.748 121.195C125.767 121.452 123.976 121.253 123.976 121.253C123.976 121.253 124.917 121.982 124.947 122.377C124.964 122.6 123.497 122.28 123.497 122.28C123.497 122.28 124.354 122.919 124.336 123.164C124.31 123.479 122.968 123.618 122.968 123.618C122.968 123.618 123.89 124.177 123.946 124.378C124.014 124.624 122.453 124.595 122.453 124.595C122.453 124.595 123.149 125.112 123.201 125.244C123.285 125.458 122.329 125.354 122.329 125.354C122.329 125.354 122.965 126.08 122.958 126.268C122.949 126.557 121.332 126.044 121.332 126.044C121.332 126.044 122.298 126.833 122.153 127.047C122.015 127.251 121.156 127.447 121.156 127.447C121.156 127.447 121.762 128.122 121.75 128.275C121.73 128.516 120.361 128.074 120.361 128.074C120.361 128.074 120.744 128.541 120.664 128.769C120.561 129.065 119.586 128.736 119.586 128.736C119.586 128.736 119.824 129.254 119.775 129.454C119.724 129.661 118.552 129.021 118.552 129.021C118.552 129.021 118.94 129.894 118.825 130.133C118.746 130.295 117.546 130.165 117.546 130.165C117.546 130.165 118.106 131.172 118.006 131.481C117.92 131.745 116.734 131.324 116.734 131.324C116.734 131.324 117.142 132.605 116.849 132.757C116.558 132.909 115.314 132.405 115.314 132.405C115.314 132.405 115.873 134.057 115.613 134.209C115.351 134.36 113.943 133.472 113.943 133.472L114.125 135.098L112.789 135.366L111.319 135.697L110.455 135.846L109.226 135.77L108.479 136.212L100.12 140.158L83.5952 130.561L82.3764 131.694L80.937 130.062C80.937 130.062 79.9514 131.415 79.5539 131.559C78.9508 131.783 78.5192 130.004 78.5192 130.004Z" fill="#333030"/>
<path d="M78.5192 130.004C78.5192 130.004 77.6091 130.871 77.4227 130.663C77.2039 130.422 77.304 129.275 77.304 129.275C77.304 129.275 76.262 129.883 76.123 129.765C75.9197 129.594 75.9173 128.64 75.9173 128.64C75.9173 128.64 75.1086 129.701 74.9791 129.534C74.8532 129.372 74.858 128.8 74.858 128.8C74.858 128.8 74.1014 129.498 73.8862 129.268C73.7214 129.093 73.8796 128.511 73.8796 128.511C73.8796 128.511 72.8113 129.471 72.6944 129.26C72.6201 129.124 72.897 128.261 72.897 128.261C72.897 128.261 71.5506 129.245 71.3413 129.115C71.1219 128.979 71.6806 127.867 71.6806 127.867C71.6806 127.867 70.4151 128.991 70.2874 128.729C70.2053 128.563 70.4894 127.641 70.4894 127.641C70.4894 127.641 69.6591 128.125 69.6483 127.895C69.6423 127.755 70.0662 126.999 70.0662 126.999C70.0662 126.999 68.6526 127.66 68.6148 127.406C68.583 127.2 69.1957 126.316 69.1957 126.316C69.1957 126.316 67.9134 126.736 67.7623 126.457C67.6448 126.242 68.1658 125.307 68.1658 125.307C68.1658 125.307 66.9572 126.196 66.8816 125.988C66.7485 125.614 67.3091 124.565 67.3091 124.565C67.3091 124.565 65.7552 125.477 65.6676 125.234C65.5891 125.017 66.2186 123.699 66.2186 123.699C66.2186 123.699 64.4734 124.702 64.3092 124.45C64.1857 124.26 64.7378 122.946 64.7378 122.946C64.7378 122.946 63.3554 123.828 63.2978 123.501C63.2487 123.23 63.6959 121.845 63.6959 121.845C63.6959 121.845 62.4693 122.8 62.3968 122.462C62.359 122.283 63.0358 120.939 63.0358 120.939C63.0358 120.939 62.2517 121.394 62.2457 121.028C62.2403 120.765 62.5886 119.962 62.5886 119.962C62.5886 119.962 61.407 120.671 61.4334 120.421C61.4609 120.161 61.9519 119.025 61.9519 119.025C61.9519 119.025 60.9586 119.589 60.8476 119.221C60.7475 118.89 61.0359 117.195 61.0359 117.195C61.0359 117.195 60.1468 118.495 59.9538 118.19C59.7613 117.888 59.467 116.112 59.467 116.112C59.467 116.112 58.9346 117.024 58.9274 116.698C58.9202 116.371 58.9376 115.021 58.9376 115.021C58.9376 115.021 58.2722 115.984 58.1373 115.452C58.003 114.922 58.1583 113.774 58.1583 113.774C58.1583 113.774 57.0756 114.608 57.0186 114.396C56.9395 114.101 57.5983 112.152 57.5983 112.152C57.5983 112.152 56.8238 112.566 56.8208 112.274C56.8166 111.984 57.3933 110.862 57.3933 110.862C57.3933 110.862 56.6877 111.362 56.6751 111.127C56.6619 110.891 56.9185 109.518 56.9185 109.518C56.9185 109.518 56.3142 110.52 56.2381 110.174C56.1583 109.817 56.6673 107.85 56.6673 107.85C56.6673 107.85 55.5409 108.867 55.4809 108.529C55.4216 108.189 56.5066 106.759 56.5066 106.759C56.5066 106.759 55.2387 107.077 55.2579 106.712C55.2783 106.346 55.6913 105.603 55.6913 105.603C55.6913 105.603 54.4749 105.687 54.4576 105.289C54.4396 104.891 56.6391 104.25 56.6391 104.25C56.6391 104.25 55.0127 104.312 55.0702 103.978C55.1284 103.645 56.2866 102.598 56.2866 102.598C56.2866 102.598 54.9353 103.161 55.0457 102.84C55.1542 102.519 56.0091 101.297 56.0091 101.297C56.0091 101.297 54.8292 102.035 54.8083 101.473C54.7873 100.912 55.4947 99.783 55.4947 99.783C55.4947 99.783 54.2363 100.61 54.3023 100.22C54.3694 99.8314 55.0139 98.8643 55.0139 98.8643C55.0139 98.8643 53.677 99.6418 53.7711 99.2136C53.8658 98.7854 54.5774 97.4529 54.5774 97.4529C54.5774 97.4529 53.6908 98.0587 53.7345 97.7442C53.7777 97.4308 54.37 96.7304 54.37 96.7304C54.37 96.7304 53.0871 97.0869 53.2478 96.8201C53.409 96.5528 54.3562 95.8907 54.3562 95.8907C54.3562 95.8907 53.0637 95.6174 53.3119 95.3549C53.5607 95.0917 54.4845 94.9488 54.4845 94.9488C54.4845 94.9488 53.0079 94.0708 53.0331 93.9649C53.0577 93.8609 54.394 93.633 54.394 93.633C54.394 93.633 52.9678 93.3083 52.978 93.0182C52.9942 92.5595 54.6914 91.791 54.6914 91.791C54.6914 91.791 52.2927 92.5039 52.5919 91.9231C52.7885 91.541 54.4336 90.59 54.4336 90.59C54.4336 90.59 51.9151 91.23 52.2508 90.5482C52.517 90.0045 54.1992 87.6212 54.1992 87.6212C54.1992 87.6212 55.0882 87.5644 55.6655 86.882C56.3514 86.0734 57.8933 85.1416 57.8933 85.1416L115.84 81.3193C115.84 81.3193 118.722 81.8845 119.677 82.3444C120.483 82.7326 118.623 83.6506 118.623 83.6506C118.623 83.6506 120.252 83.97 120.624 84.0549C121.336 84.217 119.64 85.1428 119.64 85.1428C119.64 85.1428 121.531 85.3426 121.866 85.6117C122.376 86.0202 119.897 86.3449 119.897 86.3449C119.897 86.3449 121.824 86.6577 122.026 87.0698C122.155 87.3305 120.985 88.2067 120.985 88.2067C120.985 88.2067 122.298 87.8706 122.363 87.9561C122.43 88.0422 121.44 89.4447 121.44 89.4447C121.44 89.4447 122.961 89.3024 123.297 89.4417C123.632 89.5811 122.563 90.3568 122.563 90.3568C122.563 90.3568 123.698 90.5757 123.954 90.7539C124.21 90.9327 122.893 91.1277 122.893 91.1277C122.893 91.1277 123.719 91.5266 123.887 91.7957C124.054 92.0643 122.997 91.8729 122.997 91.8729C122.997 91.8729 124.192 92.7987 124.453 93.1522C124.716 93.5044 123.177 93.3394 123.177 93.3394C123.177 93.3394 124.159 93.9584 124.378 94.2867C124.598 94.615 123.112 94.3734 123.112 94.3734C123.112 94.3734 124.219 95.1156 124.429 95.6365C124.639 96.1581 123.261 95.9637 123.261 95.9637C123.261 95.9637 124.541 96.7328 124.772 96.9816C125.003 97.2304 123.539 97.2651 123.539 97.2651C123.539 97.2651 125.026 97.7495 125.214 98.0312C125.403 98.3123 123.892 98.917 123.892 98.917C123.892 98.917 126.163 98.6078 126.31 98.9792C126.457 99.3494 125.312 99.7668 125.312 99.7668C125.312 99.7668 127.513 99.722 127.681 100.048C127.849 100.374 126.561 100.6 126.561 100.6C126.561 100.6 128.136 101.465 128.22 101.798C128.304 102.132 126.859 101.662 126.859 101.662C126.859 101.662 128.127 103.249 128.201 103.608C128.273 103.956 127.311 103.286 127.311 103.286C127.311 103.286 128.108 104.435 128.192 104.655C128.275 104.876 127.427 104.707 127.427 104.707C127.427 104.707 128.414 105.496 128.528 105.763C128.644 106.03 127.768 105.969 127.768 105.969C127.768 105.969 129.166 107.479 129.214 107.78C129.248 107.997 127.919 107.676 127.919 107.676C127.919 107.676 128.53 108.661 128.625 109.201C128.719 109.74 127.718 109.133 127.718 109.133C127.718 109.133 128.285 110.357 128.411 110.659C128.537 110.962 127.678 110.345 127.678 110.345C127.678 110.345 128.137 112.085 128.085 112.441C128.033 112.796 126.69 111.972 126.69 111.972C126.69 111.972 127.647 113.401 127.691 113.743C127.739 114.126 126.602 114.014 126.602 114.014C126.602 114.014 127.515 114.853 127.645 115.078C127.772 115.296 126.404 115.129 126.404 115.129C126.404 115.129 127.049 115.72 127.154 115.964C127.296 116.3 126.395 116.204 126.395 116.204C126.395 116.204 127.562 117.155 127.6 117.333C127.672 117.672 126.162 117.299 126.162 117.299C126.162 117.299 127.136 118.381 127.204 118.647C127.285 118.97 125.661 118.727 125.661 118.727C125.661 118.727 126.702 119.702 126.668 119.926C126.62 120.224 124.617 120.018 124.617 120.018C124.617 120.018 125.73 120.963 125.748 121.194C125.767 121.452 123.976 121.253 123.976 121.253C123.976 121.253 124.917 121.982 124.947 122.377C124.964 122.599 123.497 122.279 123.497 122.279C123.497 122.279 124.354 122.919 124.336 123.163C124.31 123.479 122.968 123.617 122.968 123.617C122.968 123.617 123.89 124.177 123.946 124.379C124.014 124.624 122.453 124.595 122.453 124.595C122.453 124.595 123.149 125.112 123.201 125.243C123.285 125.458 122.329 125.354 122.329 125.354C122.329 125.354 122.965 126.08 122.958 126.267C122.949 126.557 121.332 126.044 121.332 126.044C121.332 126.044 122.298 126.834 122.153 127.047C122.015 127.252 121.156 127.447 121.156 127.447C121.156 127.447 121.762 128.123 121.75 128.276C121.73 128.516 120.361 128.075 120.361 128.075C120.361 128.075 120.744 128.542 120.664 128.769C120.561 129.066 119.586 128.737 119.586 128.737C119.586 128.737 119.824 129.254 119.775 129.454C119.724 129.661 118.552 129.02 118.552 129.02C118.552 129.02 118.94 129.894 118.825 130.132C118.746 130.294 117.546 130.165 117.546 130.165C117.546 130.165 118.106 131.172 118.006 131.48C117.92 131.744 116.734 131.323 116.734 131.323C116.734 131.323 117.142 132.605 116.849 132.756C116.558 132.908 115.314 132.405 115.314 132.405C115.314 132.405 115.873 134.057 115.613 134.208C115.351 134.359 113.943 133.471 113.943 133.471L114.125 135.097L112.789 135.366L111.319 135.697L110.455 135.846L109.226 135.77L108.479 136.212L100.12 140.158L83.5952 130.56L82.3764 131.694L80.937 130.062C80.937 130.062 79.9514 131.415 79.5539 131.559C78.9508 131.783 78.5192 130.004 78.5192 130.004V130.004Z" stroke="black" stroke-width="0.5" stroke-miterlimit="10"/>
<path d="M106.462 131.434C106.462 131.434 110.259 172.302 110.259 174.096C110.259 175.891 111.743 196.624 112 197.421C112.257 198.218 117.525 195.827 118.688 196.026C119.851 196.225 116.853 164.128 117.053 162.733C117.253 161.338 115.531 130.287 115.531 130.287L106.462 131.434Z" fill="#B2ABAB"/>
<path d="M101.341 127.746L106.462 131.434L111.333 130.762" fill="#DBD9D9"/>
<path d="M111.773 130.762C107.313 119.748 74.8336 116.5 74.8336 116.5L57.373 123.876" fill="#DBD9D9"/>
<path d="M111.773 130.762C107.313 119.748 74.888 116.282 74.888 116.282L57.4275 123.658" stroke="black" stroke-width="0.5" stroke-miterlimit="10"/>
<path d="M115.531 130.504C115.517 128.662 150.226 115.703 157.82 111.317L152.824 176.507C152.824 176.507 117.489 192.854 118.688 196.243" fill="#B2ABAB"/>
<path d="M112 197.421C106.462 185.259 66.2953 192.436 66.2953 192.436L56.1038 123.658C56.1038 123.658 102.465 123.658 106.462 131.434L119.632 156.902L112 197.421Z" fill="#B2ABAB"/>
<path d="M156.793 111.668L142.632 111.993C142.632 111.993 113.429 122.937 111.773 130.762M106.462 131.434C102.465 123.659 56.1038 123.659 56.1038 123.659L66.2953 192.437C66.2953 192.437 106.462 185.26 112 197.422L106.462 131.434Z" stroke="black" stroke-width="0.5" stroke-miterlimit="10"/>
<path d="M154.566 153.781L152.824 176.507C152.824 176.507 126.321 188.85 119.974 194.278C119.664 194.543 119.357 194.723 119.133 194.909C118.958 195.054 118.796 195.926 118.796 195.926M106.462 131.434C106.462 131.434 110.259 172.302 110.259 174.096C110.259 175.891 111.743 196.624 112 197.421C112.257 198.218 117.525 195.827 118.688 196.026C119.851 196.225 116.853 164.128 117.053 162.733C117.253 161.338 115.531 130.287 115.531 130.287L106.462 131.434V131.434Z" stroke="black" stroke-width="0.5" stroke-miterlimit="10"/>
<path d="M123.112 75.7366C123.112 75.7366 126.771 74.9603 127.466 75.5034C128.464 76.2851 130.751 76.8885 132.014 77.9926C133.012 78.8663 134.31 77.9029 136.026 78.9268C138.639 80.4859 142.497 81.4237 144.861 83.2843C146.415 84.5062 149.461 84.978 151.426 86.9887C152.766 88.3601 158.739 92.0221 160.012 93.6656C161.262 95.2798 163.676 99.4932 164.513 101.605C165.178 103.283 169.084 108.907 169.309 111.598C169.445 113.21 171.413 121.049 171.108 122.512C170.803 123.976 172.805 132.209 172.209 135.222C171.632 138.138 168.876 143.544 167.91 145.39C166.944 147.236 166.45 149.482 165.215 152.565C164.123 155.291 162.755 157.703 161.918 158.944C160.841 160.54 157.81 164.713 156.223 165.622C153.735 167.045 148.086 170.799 147.147 170.93C144.835 171.253 132.617 171.905 134.341 171.902C135.989 171.899 142.186 167.139 142.534 166.818C143.772 165.677 145.328 162.667 147.995 161.404C151.348 159.818 152.488 155.744 153.144 153.781C154.468 149.815 154.956 147.967 154.956 147.967L157.22 111.793L145.842 126.769L129.162 97.4394C129.162 97.4394 132.612 98.44 132.856 96.5112C133.377 92.4049 128.933 91.1005 128.849 90.1472C128.764 89.1932 113.768 80.2915 113.768 80.2915L111.434 77.9525L123.112 75.7366ZM-138.364 152.026C-137.132 154.704 -131.287 158.508 -130.049 159.649C-129.701 159.97 -124.089 168.358 -124.089 168.358C-124.089 168.358 -116.871 176.152 -114.847 176.656C-112.824 177.162 -103.231 178.052 -103.231 178.052C-103.683 177.998 -126.424 179.709 -134.169 179.709C-141.064 179.711 -147.939 178.418 -149.756 178.214C-151.575 178.011 -177.043 174.653 -178.847 174.661C-180.652 174.668 -189.881 173.131 -191.528 172.281C-193.175 171.431 -196.58 169.633 -197.704 168.644C-198.829 167.656 -204.304 165.035 -207.076 163.196C-209.847 161.359 -216.548 154.47 -217.514 152.625C-218.48 150.779 -219.725 147.891 -220.481 146.231C-221.237 144.57 -222.599 139.386 -222.904 137.922C-223.209 136.458 -224.277 131.334 -224.694 129.771C-225.111 128.209 -225.062 122.273 -225.367 120.81C-225.672 119.346 -221.783 114.735 -220.866 112.87C-219.95 111.005 -210.848 105.225 -209.508 103.854C-207.543 101.843 -201.351 98.0357 -199.916 96.6775C-198.481 95.3187 -194.294 93.3421 -192.922 91.8929C-191.548 90.4432 -179.331 87.298 -178.132 85.5139C-176.933 83.7311 -173.001 84.4099 -171.139 81.0027C-169.276 77.5949 -164.444 76.3676 -164.444 76.3676L-156.148 78.2719L-160.72 87.0761C-160.72 87.0761 -164.572 93.915 -164.656 94.8683C-164.741 95.8217 -169.185 97.1255 -168.663 101.232C-168.419 103.161 -164.97 102.161 -164.97 102.161C-164.97 102.161 -155.779 112.72 -153.589 116.328C-151.399 119.936 -150.603 125.288 -147.016 131.631" fill="#333030"/>
<path d="M156.278 129.477C155.929 129.993 155.583 145.127 155.084 147.221C154.992 147.609 158.107 152.322 158.796 152.097C160.488 151.548 156.621 159.072 157.51 158.128C158.764 156.799 160.002 155.396 161.052 154.056C163.133 151.401 164.861 148.529 165.322 147.569C166.234 145.672 169.269 142.882 171.182 137.945C171.574 136.931 172.137 135.942 172.384 134.725C172.723 133.058 172.08 130.012 171.697 127.594C171.571 126.6 171.248 124.808 171.081 123.038C171 122.168 171.153 121.418 171.002 120.548C170.495 117.642 170.035 115.805 169.749 114.207C169.438 112.469 169.204 111.993 169.221 110.787C169.237 109.559 166.432 130.893 165.492 131.437C164.552 131.98 162.402 127.582 162.402 127.582C162.402 127.582 161.687 130.085 160.945 130.509C160.205 130.934 159.191 128.241 158.499 127.027C157.807 125.813 157.213 121.11 157.213 121.11C157.213 121.11 157.533 127.619 156.278 129.477Z" fill="#686663"/>
<path d="M143.32 118.984L129.163 97.44C129.163 97.44 132.612 98.4406 132.856 96.5118C133.378 92.4055 128.934 91.1011 128.849 90.1478C128.765 89.1938 113.768 80.2921 113.768 80.2921L111.435 77.9531L123.112 75.736C123.112 75.736 127.01 75.0315 127.817 75.6565C128.909 76.5022 129.962 76.7474 132.014 77.992C133.853 79.108 133.743 77.742 136.026 78.9262C137.8 79.846 143.427 81.9249 144.861 83.2837C146.296 84.6425 149.461 84.9774 151.426 86.9881C152.766 88.3595 158.308 91.8875 160.012 93.665C161.452 95.1662 163.989 99.6188 164.513 101.604C164.894 103.051 169.209 109.318 169.309 111.598C169.38 113.214 171.413 121.048 171.108 122.512C170.803 123.975 173.006 132.872 172.209 135.221C171.334 137.799 168.876 143.544 167.909 145.39C166.944 147.236 166.135 150.672 165.215 152.564C164.053 154.957 163.417 156.452 161.918 158.944C161.147 160.227 158.098 164.466 156.223 165.622C154.666 166.581 148.548 170.56 147.147 170.93C144.748 171.564 133.931 171.664 134.341 171.902C134.75 172.139 142.187 167.139 142.534 166.818C143.772 165.676 145.372 162.757 147.995 161.404C152.462 159.099 152.532 155.524 153.143 153.78C154.408 150.171 154.956 147.967 154.956 147.967L157.22 111.793" stroke="black" stroke-width="0.5" stroke-miterlimit="10"/>
<path d="M71.3288 153.577C72.5602 156.255 78.4059 160.059 79.6439 161.2C79.9916 161.522 85.6035 169.91 85.6035 169.91C85.6035 169.91 92.8222 177.703 94.8455 178.208C96.8688 178.714 106.461 179.604 106.461 179.604C106.009 179.55 83.2685 181.261 75.5235 181.261C68.6286 181.262 61.7541 179.969 59.9364 179.766C58.1181 179.562 32.6501 176.204 30.8456 176.213C29.0405 176.22 19.8117 174.682 18.1649 173.833C16.5181 172.982 13.1123 171.185 11.9882 170.195C10.8635 169.207 5.38829 166.586 2.61679 164.748C-0.154116 162.91 -6.85535 156.022 -7.82115 154.176C-8.78755 152.33 -10.0321 149.443 -10.7881 147.782C-11.5441 146.121 -12.9061 140.937 -13.2113 139.473C-13.5164 138.009 -14.5841 132.885 -15.0014 131.323C-15.4187 129.76 -15.3695 123.824 -15.6746 122.361C-15.9798 120.896 -12.0902 116.286 -11.1736 114.421C-10.2569 112.556 -1.15528 106.776 0.184604 105.405C2.14977 103.394 8.34204 99.5866 9.77665 98.2283C11.2113 96.8695 15.3982 94.8929 16.771 93.4438C18.1451 91.9941 30.3612 88.8488 31.5602 87.0648C32.7592 85.2819 36.6913 85.9607 38.554 82.5535C40.4166 79.1457 45.2486 77.9185 45.2486 77.9185L53.5451 79.8227L48.9727 88.6269C48.9727 88.6269 45.1203 95.4659 45.0364 96.4192C44.9519 97.3725 40.5078 98.6763 41.0293 102.783C41.2733 104.712 44.7229 103.711 44.7229 103.711C44.7229 103.711 53.9138 114.27 56.1038 117.879C58.2938 121.487 59.0893 126.839 62.6768 133.181" fill="#333030"/>
<path d="M36.8489 154.866C39.7913 156.589 42.5478 157.569 44.9278 157.991C45.5885 158.108 37.6678 151.699 38.1642 152.011C41.1557 153.894 49.8737 158.118 50.939 157.706C51.4192 157.52 48.282 154.457 48.8366 154.641C50.3779 155.155 56.4718 158.668 57.1151 158.376C57.5641 158.173 57.9082 157.946 58.1343 157.706C58.5767 157.239 52.7669 151.696 53.1218 152.025C54.8196 153.595 61.1048 156.823 61.1048 156.823C70.451 164.336 78.0425 162.689 83.3901 166.615C83.6185 166.782 85.7587 170.117 85.7587 170.117C85.7587 170.117 84.6317 169.479 83.1761 169.984C81.7205 170.489 86.625 171.793 86.625 171.793C86.1376 171.739 70.9354 170.065 79.3441 173.753C79.3441 173.753 68.2994 173.778 66.9248 173.853C65.5507 173.928 69.4984 175.021 71.2586 175.847C71.6435 176.027 57.8327 175.118 57.1367 175.448C55.4275 176.257 64.1383 178.828 62.7384 178.792C60.7649 178.741 58.7476 178.628 56.9209 178.425C53.3029 178.024 51.1555 176.396 50.0686 176.046C46.875 175.016 24.9038 175.448 18.0054 168.371C15.5252 166.875 14.4161 159.347 9.81256 156.509C8.70708 155.827 27.5998 167.233 27.5998 165.978C27.5998 164.084 23.9308 160.921 23.1041 160.247C23.1041 160.247 35.0702 165.892 36.2021 165.612C37.3339 165.331 35.599 160.708 35.599 160.708C35.599 160.708 38.0611 161.967 38.9508 161.742C39.8404 161.518 38.5467 158.901 38.142 157.556C37.738 156.21 34.5846 152.472 34.5846 152.472C34.5846 152.472 35.7434 154.218 36.8489 154.866Z" fill="#686663"/>
<path d="M71.3288 153.577C72.5602 156.255 78.4059 160.059 79.6439 161.2C79.9916 161.522 85.6035 169.91 85.6035 169.91C85.6035 169.91 92.8222 177.703 94.8455 178.208C96.8688 178.714 106.461 179.604 106.461 179.604C106.009 179.55 83.2685 181.261 75.5235 181.261C68.6286 181.262 61.7541 179.969 59.9364 179.766C58.1181 179.562 32.6501 176.204 30.8456 176.213C29.0405 176.22 19.8117 174.682 18.1649 173.833C16.5181 172.982 13.1123 171.185 11.9882 170.195C10.8635 169.207 5.38829 166.586 2.61679 164.748C-0.154116 162.91 -6.85535 156.022 -7.82115 154.176C-8.78755 152.33 -10.0321 149.443 -10.7881 147.782C-11.5441 146.121 -12.9061 140.937 -13.2113 139.473C-13.5164 138.009 -14.5841 132.885 -15.0014 131.323C-15.4187 129.76 -15.3695 123.824 -15.6746 122.36C-15.9798 120.896 -12.0902 116.286 -11.1736 114.421C-10.2569 112.556 -1.15528 106.776 0.184604 105.405C2.14977 103.394 8.34204 99.5866 9.77665 98.2283C11.2113 96.8695 15.3982 94.8929 16.771 93.4438C18.1451 91.9941 30.3612 88.8488 31.5602 87.0648C32.7592 85.2819 36.6913 85.9607 38.554 82.5535C40.4166 79.1457 45.2486 77.9185 45.2486 77.9185L53.5451 79.8227L48.9727 88.6269C48.9727 88.6269 45.1203 95.4659 45.0364 96.4192C44.9519 97.3725 40.5078 98.6763 41.0293 102.783C41.2733 104.712 44.7229 103.711 44.7229 103.711C44.7229 103.711 53.9138 114.27 56.1038 117.879C58.2938 121.487 59.0893 126.839 62.6768 133.181L71.3288 153.577V153.577Z" stroke="black" stroke-width="0.5" stroke-miterlimit="10"/>
<path d="M156.28 112.144L142.119 112.469C142.119 112.469 113.475 122.748 111.819 130.573L115.392 130.163C115.392 130.163 115.555 129.731 116.354 129.291C117.157 128.85 118.688 128.184 118.688 128.184L156.28 112.144Z" fill="#DBD9D9"/>
<path d="M115.531 130.287C115.517 128.444 149.658 116.179 157.252 111.793L152.132 153.781C152.132 153.781 120.9 128.107 122.099 131.496" fill="#B2ABAB"/>
<path d="M115.392 130.304C116.13 129.242 118.356 128.547 123.195 126.421C133.941 121.699 152.07 114.599 157.306 111.575" stroke="black" stroke-width="0.5" stroke-miterlimit="10"/>
<path d="M156.28 112.144L142.119 112.469C142.119 112.469 113.43 122.937 111.774 130.762" stroke="black" stroke-width="0.5" stroke-miterlimit="10"/>
<path d="M139.285 60.5936C139.011 61.1857 133.097 63.6534 133.097 63.6534L113.786 57.1523L114.027 57.6182L114.138 60.4142L120.681 62.4907C120.681 62.4907 124.559 63.6342 126.168 64.2293C127.781 64.8238 132.893 66.9093 133.852 68.0498C134.81 69.1897 137.424 70.6915 138.828 73.2261" fill="#332419"/>
<path d="M139.285 60.6915C139.011 61.2836 133.079 63.7501 133.079 63.7501L113.768 57.249L114.01 57.7143L114.119 60.5103L120.663 62.5868C120.663 62.5868 124.541 63.7309 126.152 64.3254C127.763 64.9205 132.876 67.0059 133.834 68.1459C134.792 69.2864 137.423 70.7887 138.828 73.324" stroke="black" stroke-width="0.5" stroke-miterlimit="10" stroke-linecap="round" stroke-linejoin="round"/>
<path d="M40.0042 81.2459C40.0042 81.2459 39.47 81.8906 39.461 82.012C39.452 82.1257 41.0533 81.9654 41.0533 81.9654C41.0533 81.9654 40.663 82.7913 40.7919 82.844C40.9712 82.9169 41.9148 82.9091 41.9148 82.9091C41.9148 82.9091 41.5443 83.8003 41.69 83.8433C41.898 83.9049 42.6546 83.5814 42.6546 83.5814C42.6546 83.5814 42.4855 84.9139 42.6258 84.9677C42.823 85.0437 43.5442 84.6465 43.5442 84.6465C43.5442 84.6465 43.4189 86.5125 43.5628 86.6274C43.7499 86.7769 44.537 86.1603 44.537 86.1603C44.537 86.1603 44.6605 87.7834 44.8368 87.8983C45.052 88.0382 45.7546 87.4593 45.7546 87.4593C45.7546 87.4593 46.4662 88.9802 46.6443 89.1225C46.8313 89.272 47.396 88.5836 47.396 88.5836C47.396 88.5836 48.5315 90.016 48.7323 90.1913C48.9326 90.3659 49.5818 89.6805 49.5818 89.6805C49.5818 89.6805 50.3132 90.5764 50.4817 90.6775C50.7317 90.827 51.1183 89.9795 51.1183 89.9795C51.1183 89.9795 51.7418 91.6494 51.9774 91.7863C52.2004 91.9161 52.6914 90.8647 52.6914 90.8647C52.6914 90.8647 53.2987 92.3838 53.5289 92.5339C53.74 92.6709 54.3017 91.7989 54.3017 91.7989C54.3017 91.7989 55.0829 93.2115 55.4384 93.3192C55.7261 93.4065 56.075 92.6212 56.075 92.6212C56.075 92.6212 57.2495 94.422 57.4988 94.5028C57.6961 94.5661 58.2111 93.6182 58.2111 93.6182C58.2111 93.6182 59.4514 95.3969 59.7488 95.4495C60.0114 95.4967 60.2212 94.6271 60.2212 94.6271C60.2212 94.6271 61.2655 96.2934 61.5473 96.3466C61.8111 96.3962 62.1576 95.599 62.1576 95.599C62.1576 95.599 63.2283 97.2054 63.4939 97.2311C63.7319 97.2545 64.1185 96.5583 64.1185 96.5583C64.1185 96.5583 64.82 97.8789 65.0694 97.9165C65.3176 97.9536 65.9302 97.1438 65.9302 97.1438C65.9302 97.1438 67.0777 99.1091 67.2414 99.1246C67.465 99.1468 67.866 98.4267 67.866 98.4267C67.866 98.4267 68.9002 99.9039 69.1406 99.9338C69.4277 99.9697 69.6903 99.2484 69.6903 99.2484C69.6903 99.2484 70.9703 101.104 71.2898 101.112C71.6621 101.121 71.6459 100.159 71.6459 100.159C71.6459 100.159 72.9384 102.159 73.2382 102.159C73.6129 102.159 73.7442 101.075 73.7442 101.075C73.7442 101.075 75.1314 103.213 75.4491 103.243C75.8424 103.28 75.9551 102.159 75.9551 102.159C75.9551 102.159 76.7998 104.106 77.1355 104.066C77.4455 104.029 77.5666 103.187 77.5666 103.187C77.5666 103.187 78.9724 105.357 79.3087 105.374C79.6834 105.392 79.7584 104.178 79.7584 104.178C79.7584 104.178 80.9418 106.224 81.2571 106.271C81.6318 106.327 81.9693 105.56 81.9693 105.56C81.9693 105.56 82.362 107.68 82.6252 107.691C83.0748 107.709 83.5994 106.214 83.5994 106.214C83.5994 106.214 84.5748 108.19 84.8547 108.214C85.2858 108.251 85.6041 107.018 85.6041 107.018C85.6041 107.018 87.1215 109.018 87.5153 109.018C87.9464 109.018 88.1148 107.747 88.1148 107.747C88.1148 107.747 90.1357 109.312 90.4565 109.317C90.7748 109.322 90.6999 107.822 90.6999 107.822C90.6999 107.822 92.5757 109.162 92.8353 109.111C93.0457 109.07 93.1351 108.083 93.1351 108.083C93.1351 108.083 95.1998 109.106 95.4581 109.017C95.7837 108.906 95.6452 108.045 95.6452 108.045C95.6452 108.045 97.9575 109.227 98.2866 109.092C98.5552 108.982 98.5492 107.989 98.5492 107.989C98.5492 107.989 100.745 109.064 101.116 108.905C101.426 108.772 101.116 107.765 101.116 107.765C101.116 107.765 103.782 108.88 104.038 108.75C104.325 108.604 104.02 107.615 104.02 107.615C104.02 107.615 106.798 108.735 107.036 108.55C107.225 108.403 106.473 106.942 106.473 106.942C106.473 106.942 109.225 107.608 109.489 107.409C109.789 107.185 108.983 105.877 108.983 105.877C108.983 105.877 110.257 106.139 111.307 105.764C112.356 105.39 113.03 102.924 113.03 102.924C113.03 102.924 113.105 104.045 114.229 103.522C115.353 102.998 115.664 100.756 115.664 100.756C115.664 100.756 116.239 101.354 117.295 100.98C118.351 100.606 118.576 97.9895 118.576 97.9895C118.576 97.9895 118.742 98.6623 119.559 98.2138C120.375 97.7652 119.559 94.9244 119.559 94.9244C119.559 94.9244 120.198 96.2701 120.661 95.8215C121.125 95.3729 120.323 92.3826 120.323 92.3826C120.323 92.3826 121.505 93.4292 121.764 92.6069C122.023 91.7845 120.661 89.2427 120.661 89.2427C120.661 89.2427 121.312 89.5418 121.797 89.2427C122.312 88.9257 120.001 86.1399 120.001 86.1399C120.001 86.1399 120.551 86.4019 120.95 85.9533C121.349 85.5048 120.001 83.3744 120.001 83.3744C120.001 83.3744 121.095 84.3086 121.522 83.9354C121.949 83.5622 120.95 81.1072 120.95 81.1072C120.95 81.1072 122.028 82.1663 122.623 81.1072C123.219 80.048 121.522 77.9547 121.522 77.9547C121.522 77.9547 122.939 78.8148 123.56 78.3662C124.181 77.9176 122.913 76.2359 122.913 76.2359C122.913 76.2359 123.778 75.6127 124.058 75.3394C124.295 75.1079 122.897 73.6391 122.897 73.6391C122.897 73.6391 122.098 72.5601 122.473 72.1235C122.848 71.687 122.912 71.3323 122.912 71.3323L123.396 61.5574C123.396 61.5574 125.803 61.9731 125.719 61.5825C125.61 61.0808 125.395 60.146 125.395 60.146C125.395 60.146 127.148 60.2871 127.148 59.8135C127.148 59.3153 125.815 57.8613 125.815 57.8613C125.815 57.8613 127.156 58.2106 127.148 57.8613C127.139 57.4612 125.815 55.6024 125.815 55.6024C125.815 55.6024 126.909 55.6216 126.77 55.3285C126.545 54.8554 124.421 53.9745 124.421 53.9745C124.421 53.9745 126.445 54.2155 126.07 53.4141C125.695 52.6127 124.64 52.3675 124.64 52.3675C124.64 52.3675 124.818 50.8508 124.771 50.7461C124.725 50.6426 124.106 50.9052 124.106 50.9052C124.106 50.9052 123.775 49.5117 123.954 49.1116C124.132 48.7139 123.447 49.1738 123.447 49.1738C123.447 49.1738 123.124 47.7857 123.114 47.4471C123.104 47.1092 122.541 47.5219 122.541 47.5219C122.541 47.5219 122.044 45.1583 121.647 45.1482C121.25 45.1368 120.95 45.5782 120.95 45.5782C120.95 45.5782 120.23 42.7918 120.02 42.5992C119.808 42.406 119.213 43.3432 119.213 43.3432C119.213 43.3432 118.718 41.3319 118.177 40.7972C117.637 40.2625 117.429 41.5448 117.429 41.5448C117.429 41.5448 116.771 38.0162 116.447 37.7405C116.124 37.4653 115.578 38.8577 115.578 38.8577C115.578 38.8577 114.464 35.9241 113.854 35.6053C113.245 35.2872 113.368 36.6149 113.368 36.6149C113.368 36.6149 111.238 33.5564 110.757 33.5976C110.276 33.6389 110.36 34.2944 110.36 34.2944C110.36 34.2944 107.987 31.6324 107.482 31.5941C106.976 31.5564 107.129 32.2974 107.129 32.2974C107.129 32.2974 105.229 30.3112 104.729 30.2365C104.229 30.1611 104.406 30.944 104.406 30.944C104.406 30.944 101.69 29.3268 101.327 29.31C100.965 29.2933 101.21 30.0863 101.21 30.0863C101.21 30.0863 97.6985 28.1982 97.1289 28.34C96.56 28.4811 97.2776 29.2694 97.2776 29.2694C97.2776 29.2694 93.6704 27.5499 93.0979 27.7126C92.526 27.8759 92.978 28.5104 92.978 28.5104C92.978 28.5104 90.273 27.8017 89.9739 27.6055C89.6747 27.4094 89.89 28.16 89.89 28.16C89.89 28.16 87.2815 27.5416 87.0489 27.3932C86.8163 27.2449 86.7342 28.0266 86.7342 28.0266C86.7342 28.0266 84.5154 27.7311 84.2762 27.6199C84.0382 27.5081 84.1815 28.2485 84.1815 28.2485C84.1815 28.2485 81.9484 28.2909 81.4016 28.285C80.8549 28.279 81.0983 28.8442 81.0983 28.8442C81.0983 28.8442 78.988 28.7921 78.6751 28.9339C78.3615 29.0756 78.3849 29.6462 78.3849 29.6462C78.3849 29.6462 75.6626 29.5397 75.2399 29.4386C74.8173 29.3376 75.1506 30.0301 75.1506 30.0301C75.1506 30.0301 72.1891 30.304 71.8509 30.3662C71.5134 30.4284 71.9421 31.2113 71.9421 31.2113C71.9421 31.2113 70.2239 31.6868 69.7898 31.6605C69.3552 31.6342 69.8048 32.2585 69.8048 32.2585C69.8048 32.2585 68.0921 33.0863 67.6946 33.0964C67.2971 33.1066 67.9979 33.6497 67.9979 33.6497C67.9979 33.6497 65.0346 34.9953 64.7097 35.0037C64.3847 35.0121 65.2324 35.664 65.2324 35.664C65.2324 35.664 63.8122 37.1663 63.4483 37.1699C63.0856 37.1723 64.094 37.7363 64.094 37.7363C64.094 37.7363 61.5719 39.866 61.3992 40.2613C61.2265 40.6572 61.9957 40.7206 61.9957 40.7206C61.9957 40.7206 61.0689 42.5962 60.4148 42.5944C59.7608 42.5932 60.6972 43.165 60.6972 43.165C60.6972 43.165 58.6691 44.1835 58.5072 44.3521C58.3447 44.5208 59.1133 44.8856 59.1133 44.8856C59.1133 44.8856 58.3106 45.5028 57.9964 45.6141C57.6823 45.7247 58.6823 46.2133 58.6823 46.2133C58.6823 46.2133 57.7362 47.486 57.4701 47.7043C57.2039 47.9226 58.2656 47.9908 58.2656 47.9908C58.2656 47.9908 57.9071 48.6702 57.7165 48.9172C57.527 49.1642 58.6175 49.4925 58.6175 49.4925C58.6175 49.4925 57.8921 51.1169 57.6631 51.3304C57.4329 51.5445 58.4053 51.6683 58.4053 51.6683C58.4053 51.6683 57.6523 52.6151 57.4269 52.9141C57.2015 53.2131 58.3579 53.2694 58.3579 53.2694C58.3579 53.2694 57.7398 54.3172 57.614 54.5211C57.4641 54.7639 58.2656 54.9469 58.2656 54.9469C58.2656 54.9469 57.1445 56.2262 57.0144 56.4278C56.846 56.6897 57.7656 56.8979 57.7656 56.8979C57.7656 56.8979 55.186 58.4528 55.0289 58.7076C54.879 58.9504 56.0966 59.0629 56.0966 59.0629C56.0966 59.0629 54.9252 59.9193 54.8227 60.0533C54.6362 60.2961 55.5157 60.8009 55.5157 60.8009C55.5157 60.8009 53.7771 61.079 53.4738 61.1747C53.1177 61.2871 53.8299 61.7356 53.8299 61.7356C53.8299 61.7356 52.2856 62.5125 52.0686 62.7261C51.8407 62.9503 52.5931 63.4551 52.5931 63.4551C52.5931 63.4551 50.86 64.0962 50.6819 64.3337C50.5134 64.5579 51.2442 64.9688 51.2442 64.9688C51.2442 64.9688 50.0224 65.6464 49.8582 65.8474C49.6897 66.0531 50.6166 66.3055 50.6166 66.3055C50.6166 66.3055 49.2467 67.0238 49.1088 67.1607C48.9793 67.2893 49.6334 67.6332 49.6334 67.6332C49.6334 67.6332 48.1934 68.1428 48.0597 68.3204C47.9098 68.5202 48.691 68.6715 48.691 68.6715C48.691 68.6715 47.3804 69.3682 47.1604 69.6075C46.992 69.7911 48.5093 69.7396 48.5093 69.7396C48.5093 69.7396 47.2707 70.6912 47.1574 70.8562C46.992 71.099 48.1184 71.2342 48.1184 71.2342C48.1184 71.2342 47.0525 71.7952 46.8607 71.9962C46.6472 72.2204 47.3103 72.5524 47.3103 72.5524C47.3103 72.5524 45.6695 72.8448 45.5118 73.0111C45.287 73.2485 46.0178 73.7718 46.0178 73.7718C46.0178 73.7718 44.0544 74.407 43.844 74.5882C43.6126 74.7873 44.4807 75.1863 44.4807 75.1863C44.4807 75.1863 42.9789 75.4052 42.7763 75.5409C42.4891 75.7341 43.2385 76.1019 43.2385 76.1019C43.2385 76.1019 42.0167 76.3435 41.8584 76.4631C41.6522 76.6186 42.3644 76.9865 42.3644 76.9865C42.3644 76.9865 41.2421 77.4547 41.1282 77.566C40.8908 77.7962 41.615 78.2011 41.615 78.2011C41.615 78.2011 40.5809 78.417 40.3908 78.5935C40.2098 78.7615 40.8279 79.2101 40.8279 79.2101C40.8279 79.2101 39.8891 79.4924 39.6912 79.6897C39.479 79.9015 40.2907 80.2878 40.2907 80.2878C40.2907 80.2878 38.8064 80.8721 38.6619 80.9858C38.4562 81.146 40.0042 81.2459 40.0042 81.2459Z" fill="#3D3B3B"/>
<path d="M442.047 -190.235C442.406 -190.349 442.77 -190.907 443.31 -190.833C443.852 -190.758 444.322 -191.954 444.322 -191.954L444.9 -191.094C444.9 -191.094 444.936 -192.627 444.9 -193.075C444.863 -193.524 444.286 -194.384 444.286 -194.496C444.286 -194.608 442.048 -195.617 442.048 -195.617H443.673L441.145 -197.075L441.795 -197.524L440.134 -198.01L440.531 -198.458L438.835 -198.72L440.722 -199.109V-199.745L442.697 -199.542L442.95 -200.289H445.622L445.803 -201.261L446.56 -200.85L448.159 -202.709L448.691 -201.709L449.413 -203.802L450.026 -203.167V-205.597L450.749 -205.036L451.025 -205.772C451.025 -205.772 451.362 -206.79 451.651 -207.09C451.94 -207.39 451.025 -207.09 451.025 -207.09C451.025 -207.09 451.73 -209.035 451.709 -209.147C451.687 -209.26 451.025 -209.147 451.025 -209.147C451.025 -209.147 451.442 -211.37 451.71 -211.717C451.976 -212.063 451.357 -212.213 451.357 -212.213C451.357 -212.213 451.762 -214.754 451.796 -215.09C451.832 -215.427 451.218 -215.09 451.218 -215.09C451.218 -215.09 450.892 -218.828 450.496 -218.828C450.099 -218.828 449.809 -218.38 449.809 -218.38C449.809 -218.38 449.015 -221.146 448.798 -221.333C448.581 -221.52 448.076 -220.923 448.076 -220.923C448.076 -220.923 447.39 -223.389 446.776 -223.837C446.163 -224.286 446.148 -222.987 446.148 -222.987C446.148 -222.987 444.971 -226.379 444.61 -226.603C444.249 -226.828 444.213 -225.669 444.213 -225.669C444.213 -225.669 442.444 -228.435 441.794 -228.659C441.144 -228.884 441.614 -227.762 441.614 -227.762C441.614 -227.762 438.834 -229.968 438.365 -229.856C437.895 -229.743 438.076 -229.108 438.076 -229.108C438.076 -229.108 435.332 -231.388 434.827 -231.351C434.322 -231.314 434.584 -230.603 434.584 -230.603C434.584 -230.603 432.408 -232.285 431.903 -232.285C431.397 -232.285 431.689 -231.537 431.689 -231.537C431.689 -231.537 428.762 -232.734 428.401 -232.696C428.04 -232.659 428.401 -231.912 428.401 -231.912C428.401 -231.912 424.646 -233.257 424.105 -233.033C423.563 -232.809 424.391 -232.136 424.391 -232.136C424.391 -232.136 420.567 -233.301 420.026 -233.055C419.484 -232.809 420.026 -232.248 420.026 -232.248C420.026 -232.248 417.245 -232.548 416.92 -232.697C416.595 -232.847 416.92 -232.136 416.92 -232.136C416.92 -232.136 414.249 -232.36 413.996 -232.472C413.744 -232.585 413.78 -231.799 413.78 -231.799C413.78 -231.799 411.542 -231.762 411.289 -231.836C411.036 -231.911 411.289 -231.201 411.289 -231.201C411.289 -231.201 409.087 -230.827 408.545 -230.753C408.004 -230.678 408.329 -230.155 408.329 -230.155C408.329 -230.155 406.235 -229.893 405.946 -229.706C405.657 -229.519 405.765 -228.959 405.765 -228.959C405.765 -228.959 403.057 -228.659 402.624 -228.697C402.191 -228.734 402.624 -228.098 402.624 -228.098C402.624 -228.098 399.736 -227.388 399.411 -227.276C399.086 -227.164 399.628 -226.454 399.628 -226.454C399.628 -226.454 395.873 -225.968 395.44 -226.005C395.007 -226.042 395.44 -225.407 395.44 -225.407C395.44 -225.407 393.707 -224.622 393.31 -224.622C392.913 -224.622 393.599 -224.062 393.599 -224.062C393.599 -224.062 390.602 -222.791 390.277 -222.791C389.952 -222.791 390.783 -222.118 390.783 -222.118C390.783 -222.118 387.642 -220.66 387.28 -220.697C386.919 -220.735 387.858 -220.062 387.858 -220.062C387.858 -220.062 384.428 -218.305 384.212 -217.932C383.995 -217.559 384.753 -217.409 384.753 -217.409C384.753 -217.409 381.937 -215.839 381.287 -215.913C380.637 -215.988 381.504 -215.315 381.504 -215.315C381.504 -215.315 379.374 -214.531 379.193 -214.381C379.012 -214.232 379.734 -213.783 379.734 -213.783C379.734 -213.783 378.868 -213.26 378.543 -213.185C378.218 -213.11 379.157 -212.512 379.157 -212.512C379.157 -212.512 378.073 -211.353 377.785 -211.167C377.496 -210.98 378.543 -210.793 378.543 -210.793C378.543 -210.793 378.11 -210.158 377.893 -209.933C377.677 -209.708 378.724 -209.26 378.724 -209.26C378.724 -209.26 377.821 -207.728 377.568 -207.54C377.315 -207.354 378.76 -207.615 378.76 -207.615C378.76 -207.615 378.483 -207.166 378.543 -207.017C378.603 -206.868 380.818 -207.279 380.818 -207.279C380.818 -207.279 379.806 -205.298 379.734 -204.737C379.662 -204.176 381.9 -206.12 381.9 -206.12C381.9 -206.12 381.684 -205.128 381.719 -204.652C381.756 -204.176 382.983 -205.896 382.983 -205.896C382.983 -205.896 382.875 -204.475 383.092 -204.064C383.309 -203.654 383.85 -205.261 383.85 -205.261C383.85 -205.261 384.138 -202.981 384.391 -202.383C384.644 -201.785 385.475 -203.429 385.475 -203.429C385.475 -203.429 385.366 -201.747 385.619 -201.224C385.872 -200.7 386.738 -202.644 386.738 -202.644C386.738 -202.644 387.171 -200.364 387.676 -199.728C388.182 -199.093 388.542 -200.999 388.542 -200.999C388.542 -200.999 389.012 -199.429 389.156 -198.943C389.3 -198.458 389.915 -200.401 389.915 -200.401C389.915 -200.401 389.878 -198.271 390.095 -197.822C390.312 -197.374 391.142 -199.243 391.142 -199.243C391.142 -199.243 390.745 -196.589 391.106 -196.14C391.467 -195.691 392.008 -197.971 392.008 -197.971C392.008 -197.971 392.766 -195.392 393.055 -194.944C393.344 -194.495 393.489 -196.813 393.489 -196.813C393.489 -196.813 394.175 -194.383 394.536 -194.047C394.896 -193.71 394.752 -195.579 395.077 -195.28C395.402 -194.981 396.593 -193.336 396.846 -192.888C397.098 -192.439 396.774 -194.495 397.098 -194.346C397.423 -194.196 397.965 -192.477 398.182 -192.215C398.399 -191.954 398.218 -193.897 398.398 -193.636C398.579 -193.374 399.085 -191.356 399.337 -191.019C399.589 -190.683 399.553 -192.552 399.698 -192.253C399.842 -191.953 400.817 -190.196 400.998 -189.935C401.179 -189.673 401.179 -191.617 401.395 -191.168C401.611 -190.72 402.803 -188.813 403.417 -188.327C404.03 -187.842 403.561 -189.598 403.922 -189.262C404.283 -188.925 405.872 -187.355 406.161 -186.982C406.449 -186.608 406.088 -188.552 406.304 -188.215C406.521 -187.878 408.868 -186.009 409.301 -185.598C409.735 -185.188 409.373 -186.72 409.626 -186.495C409.879 -186.271 411.431 -184.589 411.792 -183.991C412.153 -183.393 412.081 -184.738 412.334 -184.476C412.586 -184.214 413.092 -183.094 413.127 -182.645C413.164 -182.197 413.489 -183.28 413.633 -183.094C413.777 -182.907 414.102 -182.047 414.283 -181.636C414.464 -181.224 414.752 -182.084 414.861 -181.898C414.969 -181.711 415.98 -180.216 415.944 -179.879C415.908 -179.543 416.485 -180.552 416.485 -180.552C416.485 -180.552 417.532 -178.422 417.496 -178.309C417.461 -178.197 417.858 -179.131 417.858 -179.131C417.858 -179.131 418.76 -177.151 418.76 -176.739C418.76 -176.328 419.447 -177.45 419.447 -177.45C419.447 -177.45 420.241 -175.543 420.06 -175.094C419.88 -174.646 420.746 -176.365 420.746 -176.365C420.746 -176.365 421.433 -174.385 421.324 -173.824C421.216 -173.263 422.155 -174.309 422.155 -174.309C422.155 -174.309 422.841 -172.515 422.733 -172.066C422.624 -171.618 423.382 -172.702 423.382 -172.702C423.382 -172.702 423.779 -170.422 423.707 -170.01C423.635 -169.599 424.538 -170.459 424.538 -170.459C424.538 -170.459 424.863 -168.216 424.718 -167.954C424.574 -167.692 425.657 -168.216 425.657 -168.216C425.657 -168.216 426.234 -165.824 426.018 -165.375C425.801 -164.927 427.029 -165.749 427.029 -165.749C427.029 -165.749 427.571 -164.104 427.318 -163.619C427.065 -163.133 427.895 -164.553 427.895 -164.553C427.895 -164.553 428.329 -162.609 428.04 -162.161C427.751 -161.712 428.726 -162.161 428.726 -162.161C428.726 -162.161 428.329 -159.881 428.22 -159.731C428.112 -159.582 428.979 -160.03 428.979 -160.03C428.979 -160.03 428.942 -156.778 428.654 -156.329C428.365 -155.881 429.629 -156.927 429.629 -156.927C429.629 -156.927 429.051 -154.834 428.834 -154.386C428.618 -153.937 429.448 -154.386 429.448 -154.386C429.448 -154.386 429.159 -152.853 429.087 -152.367C429.014 -151.881 429.953 -152.965 429.953 -152.965C429.953 -152.965 430.278 -150.835 430.206 -150.423C430.133 -150.012 430.928 -151.246 430.928 -151.246C430.928 -151.246 430.566 -149.19 430.747 -148.704C430.928 -148.218 431.361 -149.04 431.361 -149.04C431.361 -149.04 431.649 -147.358 431.541 -147.171C431.433 -146.984 432.227 -147.844 432.227 -147.844C432.227 -147.844 431.866 -146.76 431.83 -146.498C431.794 -146.236 433.148 -147.395 433.148 -147.395C433.148 -147.395 432.552 -145.116 432.48 -144.741C432.385 -144.248 433.202 -144.555 433.202 -144.555C433.202 -144.555 432.046 -142.835 431.974 -142.648C431.903 -142.461 432.661 -142.648 432.661 -142.648C432.661 -142.648 431.758 -140.592 431.723 -140.33C431.686 -140.068 432.48 -140.33 432.48 -140.33C432.48 -140.33 431.831 -137.377 431.795 -137.153C431.758 -136.929 432.625 -137.714 432.625 -137.714C432.625 -137.714 431.65 -135.173 431.542 -134.799C431.433 -134.425 432.373 -135.173 432.373 -135.173C432.373 -135.173 431.217 -133.154 431.181 -132.706C431.145 -132.257 432.012 -132.706 432.012 -132.706C432.012 -132.706 431.362 -130.799 431.29 -130.313C431.217 -129.828 432.012 -130.799 432.012 -130.799C432.012 -130.799 432.228 -129.566 432.192 -128.669C432.156 -127.772 433.13 -130.837 433.13 -130.837C433.13 -130.837 433.853 -130.762 433.817 -130.425C433.781 -130.088 434.43 -132.705 434.43 -132.705C434.43 -132.705 435.044 -132.182 434.972 -131.845C434.899 -131.509 435.585 -134.2 435.585 -134.2C435.585 -134.2 435.982 -133.715 435.946 -133.527C435.91 -133.341 436.452 -135.994 436.452 -135.994C436.452 -135.994 437.03 -134.761 436.958 -134.649C436.886 -134.536 437.752 -138.499 437.571 -138.461C437.39 -138.424 438.329 -137.863 438.293 -137.677C438.257 -137.49 438.907 -140.481 438.907 -140.481C438.907 -140.481 439.628 -139.92 439.484 -139.621C439.34 -139.321 439.737 -142.611 439.737 -142.611C439.737 -142.611 440.676 -141.677 440.64 -141.452C440.604 -141.228 441.145 -144.778 441.145 -144.778C441.145 -144.778 441.795 -143.769 441.687 -143.47C441.578 -143.171 441.975 -146.722 441.975 -146.722C441.975 -146.722 442.661 -146.236 442.517 -146.049C442.372 -145.863 442.878 -149.189 442.878 -149.189C442.878 -149.189 443.456 -148.292 443.42 -148.179C443.383 -148.067 443.78 -151.095 443.78 -151.095C443.78 -151.095 444.539 -150.46 444.467 -150.273C444.394 -150.086 444.358 -153.188 444.358 -153.188C444.358 -153.188 445.333 -153.002 445.225 -152.852C445.116 -152.703 444.863 -156.105 444.863 -156.105C444.863 -156.105 445.802 -155.506 445.729 -155.357C445.658 -155.207 445.621 -158.759 445.621 -158.759C445.621 -158.759 446.379 -158.646 446.379 -158.347C446.379 -158.048 446.235 -160.665 446.235 -160.665C446.235 -160.665 447.319 -160.515 447.319 -160.291C447.319 -160.067 446.416 -162.085 446.416 -162.085C446.416 -162.085 447.607 -162.31 447.607 -162.085C447.607 -161.861 446.163 -164.216 446.163 -164.216C446.163 -164.216 447.535 -164.328 447.571 -164.066C447.608 -163.804 446.235 -166.384 446.235 -166.757C446.235 -167.131 447.463 -166.608 447.463 -166.608C447.463 -166.608 446.379 -168.178 446.271 -168.514C446.164 -168.851 447.21 -168.365 447.21 -168.365C447.21 -168.365 446.307 -169.598 446.271 -169.897C446.235 -170.196 447.391 -169.86 447.391 -169.86C447.391 -169.86 445.766 -172.028 445.586 -172.477C445.405 -172.925 446.56 -172.514 446.56 -172.514C446.56 -172.514 444.044 -174.981 444.039 -175.28C444.033 -175.579 445.333 -175.392 445.333 -175.392C445.333 -175.392 443.599 -176.925 443.383 -177.261C443.167 -177.598 444.574 -177.673 444.574 -177.673C444.574 -177.673 442.589 -180.252 442.336 -180.514C442.083 -180.776 443.672 -180.793 443.672 -180.793C443.672 -180.793 441.217 -183.055 441.037 -183.317C440.856 -183.579 442.192 -183.466 442.192 -183.466C442.192 -183.466 440.567 -185.223 440.495 -185.597C440.423 -185.97 441.361 -185.522 441.361 -185.522C441.361 -185.522 441.037 -187.054 440.964 -187.615C440.892 -188.176 441.542 -187.503 441.542 -187.503C441.542 -187.503 441.601 -188.278 441.632 -188.924C441.644 -189.174 441.722 -190.01 442.047 -190.235V-190.235ZM40.0042 81.2458C40.0042 81.2458 39.47 81.8905 39.461 82.0119C39.452 82.1256 41.0533 81.9653 41.0533 81.9653C41.0533 81.9653 40.663 82.7912 40.7919 82.8439C40.9712 82.9168 41.9148 82.909 41.9148 82.909C41.9148 82.909 41.5443 83.8001 41.69 83.8432C41.898 83.9048 42.6546 83.5813 42.6546 83.5813C42.6546 83.5813 42.4855 84.9138 42.6258 84.9676C42.823 85.0435 43.5442 84.6464 43.5442 84.6464C43.5442 84.6464 43.4189 86.5124 43.5628 86.6272C43.7498 86.7768 44.537 86.1601 44.537 86.1601C44.537 86.1601 44.6605 87.7833 44.8367 87.8981C45.052 88.0381 45.7546 87.4592 45.7546 87.4592C45.7546 87.4592 46.4662 88.9801 46.6442 89.1224C46.8313 89.2719 47.396 88.5835 47.396 88.5835C47.396 88.5835 48.5315 90.0159 48.7323 90.1911C48.9325 90.3658 49.5818 89.6804 49.5818 89.6804C49.5818 89.6804 50.3132 90.5763 50.4817 90.6774C50.7317 90.8269 51.1183 89.9794 51.1183 89.9794C51.1183 89.9794 51.7418 91.6492 51.9774 91.7862C52.2004 91.916 52.6914 90.8646 52.6914 90.8646C52.6914 90.8646 53.2987 92.3837 53.5289 92.5338C53.74 92.6707 54.3017 91.7987 54.3017 91.7987C54.3017 91.7987 55.0828 93.2114 55.4384 93.319C55.7261 93.4064 56.075 92.6211 56.075 92.6211C56.075 92.6211 57.2494 94.4219 57.4988 94.5026C57.6961 94.566 58.2111 93.6181 58.2111 93.6181C58.2111 93.6181 59.4514 95.3967 59.7488 95.4494C60.0113 95.4966 60.2212 94.627 60.2212 94.627C60.2212 94.627 61.2655 96.2932 61.5473 96.3465C61.8111 96.3961 62.1576 95.5989 62.1576 95.5989C62.1576 95.5989 63.2283 97.2053 63.4939 97.231C63.7319 97.2543 64.1185 96.5582 64.1185 96.5582C64.1185 96.5582 64.82 97.8787 65.0694 97.9164C65.3175 97.9535 65.9302 97.1437 65.9302 97.1437C65.9302 97.1437 67.0777 99.109 67.2413 99.1245C67.465 99.1467 67.866 98.4266 67.866 98.4266C67.866 98.4266 68.9002 99.9038 69.1406 99.9337C69.4277 99.9696 69.6903 99.2483 69.6903 99.2483C69.6903 99.2483 70.9703 101.104 71.2898 101.112C71.6621 101.121 71.6459 100.159 71.6459 100.159C71.6459 100.159 72.9384 102.159 73.2382 102.159C73.6129 102.159 73.7442 101.075 73.7442 101.075C73.7442 101.075 75.1314 103.213 75.4491 103.243C75.8424 103.28 75.9551 102.159 75.9551 102.159C75.9551 102.159 76.7998 104.106 77.1355 104.066C77.4455 104.029 77.5666 103.187 77.5666 103.187C77.5666 103.187 78.9724 105.357 79.3087 105.374C79.6834 105.392 79.7584 104.178 79.7584 104.178C79.7584 104.178 80.9418 106.224 81.2571 106.271C81.6318 106.327 81.9693 105.56 81.9693 105.56C81.9693 105.56 82.362 107.68 82.6252 107.691C83.0748 107.709 83.5994 106.214 83.5994 106.214C83.5994 106.214 84.5748 108.189 84.8547 108.214C85.2858 108.251 85.6041 107.018 85.6041 107.018C85.6041 107.018 87.1215 109.018 87.5153 109.018C87.9464 109.018 88.1148 107.747 88.1148 107.747C88.1148 107.747 90.1358 109.312 90.4565 109.317C90.7748 109.322 90.6999 107.822 90.6999 107.822C90.6999 107.822 92.5757 109.162 92.8353 109.111C93.0457 109.07 93.1351 108.083 93.1351 108.083C93.1351 108.083 95.1998 109.106 95.4581 109.017C95.7837 108.906 95.6452 108.045 95.6452 108.045C95.6452 108.045 97.9575 109.227 98.2866 109.092C98.5552 108.982 98.5492 107.989 98.5492 107.989C98.5492 107.989 100.745 109.064 101.116 108.905C101.426 108.771 101.116 107.765 101.116 107.765C101.116 107.765 103.782 108.88 104.038 108.75C104.325 108.604 104.02 107.615 104.02 107.615C104.02 107.615 106.798 108.735 107.036 108.55C107.225 108.403 106.473 106.942 106.473 106.942C106.473 106.942 109.225 107.608 109.489 107.409C109.789 107.185 108.984 105.877 108.984 105.877C108.984 105.877 110.257 106.139 111.307 105.764C112.356 105.39 113.03 102.923 113.03 102.923C113.03 102.923 113.105 104.045 114.229 103.522C115.353 102.998 115.664 100.755 115.664 100.755C115.664 100.755 116.239 101.354 117.295 100.98C118.351 100.606 118.576 97.9894 118.576 97.9894C118.576 97.9894 118.742 98.6622 119.559 98.2137C120.375 97.7651 119.559 94.9243 119.559 94.9243C119.559 94.9243 120.198 96.2699 120.661 95.8214C121.125 95.3728 120.323 92.3825 120.323 92.3825C120.323 92.3825 121.724 93.1301 121.764 92.6067C121.801 92.1397 120.661 89.2426 120.661 89.2426C120.661 89.2426 121.604 89.815 121.797 89.2426C121.949 88.794 120.001 86.1398 120.001 86.1398C120.001 86.1398 120.779 86.528 120.95 85.9532C121.039 85.6542 120.001 83.3743 120.001 83.3743C120.001 83.3743 121.424 84.2344 121.522 83.9353C121.698 83.3965 120.95 81.1071 120.95 81.1071C120.95 81.1071 122.028 82.1662 122.623 81.1071C123.219 80.0479 121.522 77.9546 121.522 77.9546C121.522 77.9546 123.132 78.6651 123.56 78.3661C124.021 78.0437 122.913 76.2358 122.913 76.2358C122.913 76.2358 123.795 75.9636 124.058 75.3392C124.321 74.7149 122.897 73.639 122.897 73.639C122.897 73.639 121.436 72.5355 121.81 72.0989C122.185 71.6623 124.159 71.3328 124.159 71.3328L123.396 61.5579C123.396 61.5579 125.76 62.0244 125.719 61.583C125.674 61.0932 125.396 60.1465 125.396 60.1465C125.396 60.1465 127.187 60.1501 127.149 59.8139C127.082 59.2159 125.671 57.9049 125.671 57.9049C125.671 57.9049 127.215 58.1088 127.149 57.8618C127.004 57.3206 125.815 55.6029 125.815 55.6029C125.815 55.6029 126.903 55.6245 126.77 55.329C126.611 54.9755 124.422 53.975 124.422 53.975C124.422 53.975 126.145 53.6209 126.071 53.4146C125.963 53.1168 124.64 52.368 124.64 52.368C124.64 52.368 124.819 50.8513 124.771 50.7466C124.725 50.6431 124.107 50.9057 124.107 50.9057C124.107 50.9057 123.776 49.5122 123.955 49.1121C124.133 48.7144 123.448 49.1743 123.448 49.1743C123.448 49.1743 123.125 47.7861 123.114 47.4476C123.105 47.1097 122.541 47.5224 122.541 47.5224C122.541 47.5224 122.044 45.1588 121.648 45.1486C121.251 45.1373 120.95 45.5787 120.95 45.5787C120.95 45.5787 120.231 42.7923 120.02 42.5997C119.808 42.4065 119.213 43.3437 119.213 43.3437C119.213 43.3437 118.718 41.3324 118.177 40.7977C117.638 40.263 117.429 41.5453 117.429 41.5453C117.429 41.5453 116.772 38.0167 116.448 37.741C116.125 37.4658 115.579 38.8581 115.579 38.8581C115.579 38.8581 114.465 35.9246 113.855 35.6058C113.246 35.2877 113.368 36.6154 113.368 36.6154C113.368 36.6154 111.238 33.5568 110.757 33.5981C110.277 33.6394 110.361 34.2949 110.361 34.2949C110.361 34.2949 107.987 31.6329 107.482 31.5946C106.977 31.5569 107.13 32.2979 107.13 32.2979C107.13 32.2979 105.229 30.3117 104.729 30.237C104.229 30.1616 104.407 30.9445 104.407 30.9445C104.407 30.9445 101.691 29.3273 101.328 29.3105C100.965 29.2938 101.211 30.0868 101.211 30.0868C101.211 30.0868 97.6991 28.1987 97.1296 28.3405C96.5606 28.4816 97.2782 29.2699 97.2782 29.2699C97.2782 29.2699 93.671 27.5504 93.0985 27.7131C92.5266 27.8764 92.9786 28.5109 92.9786 28.5109C92.9786 28.5109 90.2736 27.8022 89.9745 27.606C89.6753 27.4099 89.8906 28.1604 89.8906 28.1604C89.8906 28.1604 87.2821 27.542 87.0495 27.3937C86.8169 27.2454 86.7348 28.0271 86.7348 28.0271C86.7348 28.0271 84.516 27.7316 84.2768 27.6204C84.0388 27.5086 84.1821 28.249 84.1821 28.249C84.1821 28.249 81.9489 28.2914 81.4022 28.2855C80.8555 28.2795 81.0989 28.8446 81.0989 28.8446C81.0989 28.8446 78.9886 28.7926 78.6757 28.9344C78.3621 29.0761 78.3855 29.6467 78.3855 29.6467C78.3855 29.6467 75.6632 29.5402 75.2405 29.4391C74.8179 29.3381 75.1512 30.0306 75.1512 30.0306C75.1512 30.0306 72.1896 30.3045 71.8515 30.3667C71.514 30.4289 71.9427 31.2118 71.9427 31.2118C71.9427 31.2118 70.2245 31.6873 69.7904 31.661C69.3558 31.6346 69.8054 32.259 69.8054 32.259C69.8054 32.259 68.0926 33.0868 67.6952 33.0969C67.2977 33.1071 67.9985 33.6501 67.9985 33.6501C67.9985 33.6501 65.0352 34.9958 64.7103 35.0042C64.3853 35.0125 65.233 35.6644 65.233 35.6644C65.233 35.6644 63.8128 37.1668 63.4489 37.1704C63.0862 37.1728 64.0946 37.7368 64.0946 37.7368C64.0946 37.7368 61.5725 39.8665 61.3998 40.2618C61.2271 40.6577 61.9963 40.7211 61.9963 40.7211C61.9963 40.7211 61.0695 42.5967 60.4154 42.5949C59.7614 42.5937 60.6978 43.1654 60.6978 43.1654C60.6978 43.1654 58.6697 44.184 58.5078 44.3526C58.3453 44.5213 59.1139 44.8861 59.1139 44.8861C59.1139 44.8861 58.3112 45.5033 57.997 45.6145C57.6829 45.7252 58.6829 46.2138 58.6829 46.2138C58.6829 46.2138 57.7368 47.4865 57.4707 47.7048C57.2045 47.9231 58.2662 47.9913 58.2662 47.9913C58.2662 47.9913 57.9077 48.6707 57.7171 48.9177C57.5276 49.1647 58.6181 49.493 58.6181 49.493C58.6181 49.493 57.8927 51.1174 57.6637 51.3309C57.4335 51.545 58.4059 51.6688 58.4059 51.6688C58.4059 51.6688 57.6529 52.6156 57.4275 52.9146C57.2021 53.2136 58.3585 53.2699 58.3585 53.2699C58.3585 53.2699 57.7404 54.3177 57.6145 54.5216C57.4647 54.7644 58.2662 54.9474 58.2662 54.9474C58.2662 54.9474 57.1451 56.2267 57.015 56.4283C56.8466 56.6902 57.7662 56.8983 57.7662 56.8983C57.7662 56.8983 55.1866 58.4533 55.0295 58.7081C54.8796 58.9509 56.0972 59.0634 56.0972 59.0634C56.0972 59.0634 54.9258 59.9198 54.8233 60.0538C54.6368 60.2966 55.5163 60.8014 55.5163 60.8014C55.5163 60.8014 53.7777 61.0795 53.4744 61.1751C53.1183 61.2876 53.8305 61.7361 53.8305 61.7361C53.8305 61.7361 52.2862 62.513 52.0691 62.7265C51.8413 62.9508 52.5937 63.4556 52.5937 63.4556C52.5937 63.4556 50.8605 64.0967 50.6825 64.3342C50.514 64.5584 51.2448 64.9693 51.2448 64.9693C51.2448 64.9693 50.023 65.6469 49.8588 65.8479C49.6903 66.0536 50.6171 66.306 50.6171 66.306C50.6171 66.306 49.2473 67.0243 49.1094 67.1612C48.9799 67.2898 49.634 67.6337 49.634 67.6337C49.634 67.6337 48.194 68.1433 48.0603 68.3209C47.9104 68.5206 48.6915 68.672 48.6915 68.672C48.6915 68.672 47.381 69.3687 47.161 69.6079C46.9926 69.7916 48.5099 69.7401 48.5099 69.7401C48.5099 69.7401 47.2713 70.6916 47.158 70.8567C46.9926 71.0995 48.119 71.2347 48.119 71.2347C48.119 71.2347 47.0531 71.7957 46.8613 71.9966C46.6478 72.2209 47.3109 72.5528 47.3109 72.5528C47.3109 72.5528 45.6701 72.8453 45.5124 73.0116C45.2876 73.249 46.0184 73.7723 46.0184 73.7723C46.0184 73.7723 44.055 74.4074 43.8446 74.5887C43.6132 74.7878 44.4812 75.1867 44.4812 75.1867C44.4812 75.1867 42.9795 75.4056 42.7769 75.5414C42.4897 75.7346 43.2391 76.1024 43.2391 76.1024C43.2391 76.1024 42.0173 76.344 41.859 76.4636C41.6528 76.6191 42.365 76.9869 42.365 76.9869C42.365 76.9869 41.2427 77.4552 41.1288 77.5665C40.8914 77.7967 41.6156 78.2016 41.6156 78.2016C41.6156 78.2016 40.5815 78.4175 40.3914 78.594C40.2104 78.762 40.8285 79.2106 40.8285 79.2106C40.8285 79.2106 39.8897 79.4929 39.6918 79.6902C39.4796 79.9019 40.2913 80.2883 40.2913 80.2883C40.2913 80.2883 38.807 80.8726 38.6625 80.9862C38.4562 81.1459 40.0042 81.2458 40.0042 81.2458V81.2458Z" stroke="black" stroke-width="0.5" stroke-miterlimit="10"/>
<path opacity="0.3" d="M118.814 56.0758L125.996 52.3869L134.01 53.4149L140.244 60.6917L139.986 68.0384L138.499 74.7104L134.01 79.0034L127.822 80.8084L123.61 81.0213L117.415 79.3329L114.518 72.0508L115.317 62.8214L118.814 56.0758ZM77.6709 55.7085L84.8523 52.019L92.8671 53.0477L100.667 56.0524L105.432 67.6311L101.347 77.5603L95.9737 81.8484L90.7161 83.788L84.5526 82.7049L77.7201 79.3604L73.3743 71.6836L74.1734 62.4542L77.6709 55.7085Z" fill="#EADCD0"/>
<path d="M94.1145 66.4931C93.7722 64.733 92.3664 61.7911 90.1116 60.6254C87.8563 59.4598 85.2838 58.9353 83.2299 60.2827C81.3865 61.4908 80.2744 63.7516 80.1545 65.2766C80.034 66.8017 80.6659 69.4015 81.8175 71.0935C82.9026 72.6885 84.4829 73.8841 85.8767 74.1837C86.9499 74.4152 88.0979 74.3649 89.4522 73.9493C89.9893 73.7848 91.4641 73.2567 92.7944 71.3913C93.9095 69.8286 94.4574 68.2526 94.1145 66.4931Z" fill="#DCD5CB"/>
<path d="M90.9504 70.6458C91.1824 69.6488 91.3077 67.8031 90.957 66.5544C90.7934 65.9695 90.2322 65.2099 89.5098 64.8899C88.7329 64.5454 87.4733 64.4474 86.845 64.8409C85.8607 65.4575 85.408 66.2595 85.0945 66.964C84.6245 68.0208 84.483 69.3635 84.5831 70.3497C84.6521 71.0327 84.8247 71.8455 85.0435 72.4167C85.221 72.8778 85.6718 73.6547 86.1208 73.8879C86.7078 74.1923 87.7851 74.1911 88.0416 74.1487C88.5638 74.0614 89.0938 73.8365 89.5362 73.3951C89.9439 72.9884 90.6621 71.8838 90.9504 70.6458Z" fill="black"/>
<path d="M89.0657 71.4261C89.0207 70.8998 88.6742 70.4567 88.215 70.3879C87.7557 70.3191 87.3703 70.6385 87.1682 70.9196C86.9194 71.2611 86.6323 72.1994 86.6592 72.6342C86.6784 72.9524 86.9182 73.447 87.2893 73.5834C87.6143 73.7018 88.0873 73.5116 88.411 73.2012C88.7221 72.9028 89.1106 71.9524 89.0657 71.4261Z" fill="white"/>
<path d="M93.2651 65.2899C93.5181 65.9107 93.6824 66.1625 93.7801 66.2618C93.879 66.3617 94.1158 66.4113 94.1158 66.2134C94.1188 66.0154 93.9425 65.4084 93.7609 64.897C93.6038 64.4598 93.1758 63.7529 92.9654 63.3982C92.7633 63.0549 92.1494 62.2649 91.7819 61.8445C91.3419 61.3397 90.3563 60.5831 90.1231 60.4354C89.8905 60.2871 89.2508 59.872 88.517 59.6274C87.7751 59.3742 86.9955 59.2478 86.2114 59.2536C85.3463 59.2578 85.137 59.2518 84.3865 59.4354C83.6371 59.619 83.2066 59.8523 82.8062 60.1101C82.4147 60.3624 81.6419 60.884 80.9477 61.9952C80.2325 63.1393 80.2637 63.2601 79.9921 64.0902C79.8046 64.6502 79.6856 65.2307 79.6378 65.8192C79.6096 66.1123 79.5473 66.4287 79.7283 66.5405C79.91 66.6529 80.365 66.3228 80.4615 65.9998C80.5766 65.6171 80.8746 64.6099 81.0472 64.1931C81.305 63.5663 81.4495 63.1746 81.9309 62.4509C82.4177 61.7201 82.8745 61.4611 83.5226 61.0676C84.0969 60.7183 84.977 60.5927 85.6238 60.5526C86.1598 60.5191 86.7557 60.5849 87.5375 60.7482C88.2862 60.9037 89.3378 61.3451 89.8276 61.6369C90.2466 61.8869 90.8341 62.2529 91.3089 62.6728C91.7364 63.0508 92.3413 63.7146 92.5637 64.0184C92.8323 64.3839 93.0403 64.7367 93.2651 65.2899Z" fill="#301D06"/>
<path d="M90.7124 73.4456C90.6459 73.3427 90.2652 73.433 90.0512 73.5108C89.7118 73.6352 89.4277 73.7279 89.0152 73.8511C88.5872 73.9791 88.0932 74.0341 87.6615 74.0347C87.1538 74.0347 86.6298 74.0162 85.9332 73.8218C84.983 73.5574 84.7767 73.381 84.284 73.0724C83.7552 72.7417 83.567 72.6065 83.2001 72.2782C82.8727 71.9857 82.6659 71.8314 82.3446 71.5156C82.1299 71.3045 82.0724 71.1897 81.9819 71.1998C81.79 71.222 81.8716 71.3201 81.8967 71.4277C81.9219 71.5348 82.1941 71.966 82.4555 72.2554C82.7717 72.5955 83.1071 72.9172 83.4602 73.2189C83.8008 73.5 84.4027 73.8852 84.9074 74.1639C85.423 74.448 85.7917 74.5425 86.327 74.6358C86.9661 74.7476 87.4247 74.7105 87.9535 74.6734C88.4121 74.6411 89.0728 74.5006 89.7526 74.1483C90.0541 73.9916 90.7789 73.5485 90.7124 73.4456Z" fill="#683C0C"/>
<path d="M127.865 66.5997C127.553 64.9903 126.267 62.3001 124.206 61.2338C122.143 60.168 119.791 59.6884 117.913 60.9204C116.227 62.025 115.21 64.0926 115.1 65.4873C114.99 66.882 115.568 69.2593 116.621 70.8065C117.613 72.2652 119.059 73.3585 120.333 73.633C121.315 73.8447 122.364 73.7986 123.602 73.4189C124.094 73.2682 125.442 72.7855 126.659 71.0792C127.678 69.6498 128.179 68.2091 127.865 66.5997Z" fill="#DCD5CB"/>
<path d="M124.972 70.3975C125.184 69.4854 125.298 67.7977 124.978 66.656C124.828 66.1207 124.315 65.4263 123.655 65.1339C122.943 64.8193 121.792 64.729 121.218 65.089C120.318 65.653 119.903 66.3862 119.617 67.031C119.186 67.9968 119.058 69.2247 119.149 70.1272C119.212 70.7516 119.37 71.495 119.57 72.0171C119.733 72.4387 120.144 73.1492 120.556 73.3627C121.092 73.6414 122.078 73.6396 122.312 73.6008C122.79 73.5206 123.274 73.3149 123.679 72.9112C124.051 72.5398 124.708 71.5296 124.972 70.3975Z" fill="black"/>
<path d="M122.909 71.2205C122.869 70.739 122.551 70.3341 122.131 70.2713C121.711 70.2085 121.359 70.5004 121.174 70.7576C120.947 71.0698 120.685 71.9286 120.709 72.3257C120.727 72.6164 120.946 73.0691 121.285 73.1935C121.582 73.3018 122.015 73.1283 122.311 72.8442C122.595 72.5709 122.95 71.7019 122.909 71.2205Z" fill="white"/>
<path d="M127.109 65.5243C127.334 66.0769 127.481 66.3018 127.569 66.3903C127.656 66.4794 127.867 66.5236 127.867 66.3472C127.869 66.1708 127.712 65.6301 127.551 65.175C127.412 64.7857 127.03 64.1559 126.843 63.8401C126.662 63.5345 126.115 62.8306 125.789 62.4562C125.396 62.0064 124.518 61.3324 124.311 61.2008C124.103 61.0686 123.533 60.699 122.88 60.4807C122.219 60.2554 121.525 60.1428 120.826 60.1476C120.056 60.1512 119.869 60.1458 119.201 60.3097C118.533 60.473 118.15 60.6811 117.793 60.9108C117.444 61.1356 116.756 61.6003 116.137 62.5901C115.501 63.6092 115.528 63.7163 115.287 64.4561C115.119 64.9548 115.013 65.472 114.971 65.9962C114.946 66.2575 114.89 66.5386 115.052 66.6385C115.214 66.7384 115.619 66.4441 115.705 66.157C115.807 65.8161 116.073 64.919 116.227 64.547C116.456 63.9884 116.585 63.6398 117.013 62.9956C117.447 62.3449 117.854 62.1135 118.431 61.763C118.943 61.452 119.726 61.3402 120.303 61.3043C120.78 61.275 121.311 61.333 122.008 61.4783C122.674 61.6171 123.611 62.01 124.048 62.2702C124.421 62.4932 124.944 62.8186 125.367 63.193C125.747 63.5291 126.286 64.1206 126.484 64.3909C126.723 64.7169 126.909 65.0309 127.109 65.5243Z" fill="#3D2504"/>
<path d="M124.754 72.9576C124.693 72.8637 124.345 72.9456 124.15 73.0174C123.839 73.131 123.58 73.216 123.203 73.329C122.811 73.4462 122.36 73.4964 121.965 73.497C121.501 73.497 121.022 73.4797 120.384 73.3021C119.516 73.0605 119.327 72.899 118.876 72.6167C118.392 72.3141 118.22 72.1909 117.885 71.8906C117.586 71.6233 117.397 71.4821 117.103 71.1933C116.907 71.0001 116.854 70.8948 116.771 70.9044C116.595 70.9247 116.67 71.0145 116.693 71.1125C116.716 71.2106 116.965 71.6047 117.204 71.8697C117.493 72.1808 117.8 72.4751 118.122 72.7512C118.435 73.0084 118.985 73.3607 119.446 73.6149C119.918 73.875 120.255 73.9611 120.745 74.0467C121.329 74.1483 121.748 74.1149 122.231 74.0814C122.65 74.0515 123.255 73.9235 123.876 73.6011C124.152 73.457 124.815 73.0521 124.754 72.9576Z" fill="#683C0C"/>
<path d="M92.2742 82.5311C92.2742 82.5311 95.8712 78.7435 100.767 80.5378C105.663 82.332 103.253 79.8398 103.11 79.3416C102.966 78.8434 102.465 78.0456 102.465 78.0456C102.465 78.0456 103.764 78.2448 104.864 78.0456C105.963 77.8464 108.161 75.554 108.561 74.557C108.961 73.5601 110.459 73.4602 111.158 73.8591C111.858 74.258 114.656 75.8531 115.255 76.0522C115.855 76.2514 117.038 77.3476 117.296 77.1485C117.553 76.9493 117.376 79.5408 117.714 79.7399C118.052 79.9391 120.295 79.7399 120.323 79.5408L120.351 79.3416C120.351 79.3416 121.164 80.2644 120.708 81.0491C120.252 81.8338 119.352 82.8308 119.452 83.8271C119.552 84.8235 120.195 88.9107 120.323 89.6087C120.451 90.3066 120.85 93.0972 121.35 93.7952C121.85 94.4931 126.246 104.76 127.844 109.445C129.443 114.13 134.139 123.799 134.139 123.799C134.139 123.799 137.436 133.068 137.736 133.567C138.036 134.066 138.835 138.152 138.835 139.049C138.835 139.947 139.435 141.741 138.835 142.14C138.236 142.538 135.838 143.435 134.938 143.136C134.039 142.837 129.543 137.455 125.646 129.58C121.749 121.705 114.456 110.641 113.657 109.346C112.857 108.05 101.266 95.59 99.4676 95.291C97.6697 94.9919 99.6684 91.7025 98.8687 90.2074C98.069 88.7122 95.5708 85.2236 94.4719 84.9246C93.3731 84.6256 91.1381 83.4611 92.2742 82.5311Z" fill="#C61414"/>
<path d="M118.688 117.378L121.499 121.99L125.058 128.478L127.689 133.466L129.615 136.629L131.656 139.584L132.965 141.128L134.939 143.195L137.111 142.923L138.836 142.199L139.102 141.502L138.647 137.58L137.977 134.346L135.685 128.166C135.685 128.166 136.887 132.787 136.288 133.976C135.853 134.84 135.239 135.222 134.39 135.471C133.537 135.722 131.693 134.773 129.994 133.627C128.293 132.479 127.152 129.719 127.152 129.719L125.829 125.759C125.829 125.759 125.645 124.061 124.497 121.915C123.35 119.768 118.688 117.378 118.688 117.378Z" fill="#991111"/>
<path d="M105.463 87.8245C105.463 87.8245 105.163 85.5818 106.437 86.7031C107.711 87.8245 108.535 90.2168 108.91 90.8149C109.284 91.413 110.783 92.9829 110.558 93.4314C110.334 93.88 109.434 93.6557 108.985 92.9829C108.535 92.3101 105.463 87.8245 105.463 87.8245Z" fill="#38393A" stroke="black" stroke-width="0.5" stroke-miterlimit="10"/>
<path d="M95.271 82.7412C95.271 82.7412 96.9196 82.2927 99.4675 84.5354C102.015 86.7782 106.062 92.7589 106.062 92.7589C106.062 92.7589 110.558 98.291 111.607 99.6367C112.657 100.982 115.654 107.75 116.254 108.478C116.853 109.206 124.047 120.569 124.497 121.915C124.946 123.26 128.015 131.783 128.729 135.222" stroke="black" stroke-width="0.5" stroke-miterlimit="10"/>
<path d="M92.2742 82.5917C92.2742 82.5917 95.8712 78.8041 100.767 80.5983C105.663 82.3925 103.253 79.9004 103.11 79.4022C102.966 78.904 102.465 78.1061 102.465 78.1061C102.465 78.1061 103.764 78.3053 104.864 78.1061C105.963 77.907 108.161 75.6146 108.561 74.6176C108.961 73.6206 110.459 73.5207 111.158 73.9196C111.858 74.3186 114.656 75.9136 115.255 76.1128C115.855 76.3119 117.038 77.4082 117.296 77.209C117.553 77.0099 117.376 79.6013 117.714 79.8005C118.052 79.9996 120.295 79.8005 120.323 79.6013L120.351 79.4022C120.351 79.4022 121.164 80.325 120.708 81.1097C120.252 81.8943 119.352 82.8913 119.452 83.8877C119.552 84.8841 120.195 88.9713 120.323 89.6692C120.451 90.3672 120.85 93.1578 121.35 93.8557C121.85 94.5537 126.246 104.82 127.844 109.505C129.443 114.191 134.139 123.859 134.139 123.859C134.139 123.859 137.436 133.129 137.736 133.627C138.036 134.126 138.835 138.213 138.835 139.11C138.835 140.007 139.435 141.802 138.835 142.2C138.236 142.599 135.838 143.496 134.938 143.197C134.039 142.898 129.543 137.516 125.646 129.641C121.749 121.766 114.456 110.702 113.657 109.406C112.857 108.111 101.266 95.6506 99.4676 95.3515C97.6697 95.0525 99.6684 91.7631 98.8687 90.2679C98.069 88.7727 95.5708 85.2842 94.4719 84.9852C93.3731 84.6861 91.1381 83.5217 92.2742 82.5917V82.5917Z" stroke="black" stroke-width="0.5" stroke-miterlimit="10"/>
<path d="M97.6794 55.3467C97.6794 55.3467 103.599 62.7239 103.599 67.0623C103.599 71.0999 101.55 78.0734 93.3474 81.3628C93.3474 81.3628 102.87 73.2428 102.098 67.0623C101.501 62.2753 97.6794 55.3467 97.6794 55.3467Z" fill="#BBAA98"/>
<path d="M141.948 63.4747C141.583 63.3826 140.761 61.5609 139.848 59.1913C138.934 56.8229 136.651 54.5443 133.727 52.2662C130.804 49.9876 124.647 51.3727 123.133 51.8099C121.397 52.3117 117.651 55.5467 115.826 58.2798C113.541 61.6966 113.382 65.2892 113.062 65.114C112.243 64.6672 106.902 66.5027 106.692 65.7515C104.308 57.2374 102.445 55.7052 98.8364 53.1771C95.0002 50.4894 90.7533 50.0791 86.6881 50.2615C81.3033 50.5031 77.1896 54.4982 75.8185 56.1842C74.5062 57.7978 71.8912 64.2031 71.6172 64.7952C71.3432 65.3873 70.9529 65.6295 70.9529 65.6295L57.4413 55.3493L56.7855 55.3469L55.698 58.8474L61.4802 62.5423C61.4802 62.5423 61.9436 62.8922 63.3434 63.8826C64.7475 64.8736 69.1436 68.2078 69.7743 69.5565C70.4038 70.9051 72.7269 74.243 74.1309 76.7782C75.5805 79.3959 76.0919 79.9659 79.3376 82.4276C81.7392 84.2493 86.4621 85.1613 89.5213 85.0244C92.5812 84.8874 94.4055 84.4771 98.1991 82.3821C101.977 80.2954 104.548 75.8213 104.776 75.2746C105.004 74.728 106.42 71.6754 106.831 71.0834C107.243 70.4913 113.588 69.6252 113.636 71.2652C113.784 76.4122 117.335 79.5574 117.974 80.1495C118.614 80.7416 120.897 83.0196 126.195 82.9293C131.493 82.8384 133.821 80.0592 135.648 78.692C137.476 77.3254 139.758 72.9505 139.941 72.313C140.124 71.6748 140.854 68.8956 141.037 68.1217C141.22 67.3478 142.636 66.4818 142.636 66.4818V63.3832C142.635 63.3832 142.315 63.5656 141.948 63.4747ZM103.084 68.5093C103.016 70.2173 100.99 75.0563 100.029 76.2184C99.0702 77.3804 96.9186 79.7859 95.2735 80.4689C93.6297 81.1525 89.4506 82.3821 84.9981 81.357C80.545 80.3319 77.9413 76.8464 77.1884 75.7531C76.4348 74.6598 74.7909 72.6778 74.517 69.6707C74.243 66.6636 74.7226 61.6063 78.0103 58.3947C81.2985 55.1824 83.9885 53.8595 85.9573 53.4743C87.7042 53.1328 91.7119 53.2351 94.8623 54.9091C96.4594 55.7572 98.9725 56.686 101.028 60.65C103.084 64.6134 103.152 66.8006 103.084 68.5093ZM132.783 78.2135C127.439 81.0233 123.566 80.177 122.233 79.6561C121.505 79.372 117.058 76.9151 116.067 72.066C115.16 67.6325 116.067 65.5022 116.067 65.5022C116.067 65.5022 117.812 58.531 122.575 55.5317C126.953 52.7746 132.061 53.9223 134.046 55.5317C135.501 56.7117 137.989 59.2218 138.4 62.571C138.811 65.9202 138.126 75.4038 132.783 78.2135Z" fill="#332419"/>
<path d="M61.4382 62.6309C61.4382 62.6309 61.9004 62.9802 63.3021 63.9712C64.7037 64.9622 69.1022 68.297 69.7317 69.6445C70.3612 70.9937 72.7262 74.3411 74.1303 76.8763C75.5799 79.4941 76.0913 80.0647 79.337 82.5257C81.7386 84.3474 86.4614 85.2595 89.5207 85.1225C92.5806 84.9856 94.4048 84.5753 98.1985 82.4803C101.976 80.3936 104.547 75.9194 104.775 75.3728C105.003 74.8256 106.419 71.7736 106.831 71.1815C107.242 70.5894 113.588 69.7234 113.635 71.3639C113.783 76.5109 117.335 79.6562 117.973 80.2483C118.613 80.8404 120.897 83.1184 126.194 83.0275C131.492 82.9366 133.82 80.1574 135.648 78.7908C137.475 77.4236 139.758 73.0493 139.94 72.4111C140.124 71.773 140.854 68.9944 141.036 68.2199C141.219 67.446 142.635 66.5794 142.635 66.5794V63.4814C142.635 63.4814 142.315 63.6638 141.949 63.5723C141.584 63.4814 140.762 61.659 139.849 59.2895C138.935 56.9205 136.651 54.6425 133.728 52.3644C130.805 50.0858 124.648 51.4715 123.134 51.9087C121.397 52.4099 117.652 55.6448 115.826 58.378C113.542 61.7954 113.383 65.3874 113.063 65.2128C112.244 64.7654 106.903 66.6009 106.693 65.8497C104.309 57.3356 102.445 55.8027 98.837 53.2753C95.0008 50.5869 90.7539 50.1773 86.6887 50.3597C81.3039 50.6013 77.1901 54.5964 75.8191 56.2824C74.5068 57.896 71.8917 64.3013 71.6178 64.8934C71.3438 65.4855 70.9115 65.7187 70.9115 65.7187L57.3994 55.4385L56.7447 55.4355L55.656 58.9354L61.4382 62.6309V62.6309Z" stroke="black" stroke-width="0.5" stroke-miterlimit="10" stroke-linecap="round" stroke-linejoin="round"/>
<path d="M74.5176 69.7692C74.2437 66.7621 74.7233 61.7049 78.0109 58.4932C81.2992 55.281 83.9892 53.9575 85.9579 53.5723C87.7049 53.2308 91.7126 53.3331 94.863 55.0071C96.46 55.8557 98.9731 56.7839 101.028 60.7479C103.084 64.712 103.152 66.8985 103.084 68.6072C103.016 70.3159 100.99 75.0562 100.029 76.2182C99.0703 77.3797 96.9187 79.8838 95.2736 80.5668C93.6298 81.2504 89.4506 82.4806 84.9981 81.4555C80.545 80.4305 77.9414 76.9449 77.1884 75.8516C76.4354 74.7578 74.7916 72.7757 74.5176 69.7692V69.7692Z" stroke="black" stroke-width="0.5" stroke-miterlimit="10"/>
<path d="M87.1903 78.0383C87.1903 78.0383 86.3684 77.4917 88.0123 76.8769C89.6561 76.2621 92.2597 75.1 92.945 74.4846C93.6302 73.8692 95.4107 71.4093 96.0276 70.4524C96.6445 69.4955 97.1924 66.8987 97.2614 66.2151C97.3303 65.5315 97.6037 63.8228 97.6037 63.5495C97.6037 63.2762 98.1517 60.9527 99.0419 62.7977C99.9322 64.6428 99.693 66.2833 99.6414 66.9669C99.5899 67.6505 99.2475 70.3836 98.7679 71.4775C98.2883 72.5714 97.2608 74.4846 96.4383 75.0994C95.6163 75.7148 93.9725 76.6711 92.8766 77.2178C91.7807 77.7644 90.5476 77.9014 89.4511 78.0377C88.3552 78.1753 87.1903 78.0383 87.1903 78.0383Z" fill="#FFFFFD"/>
<path d="M96.2783 52.5474C96.2783 52.5474 97.3287 53.7315 97.6944 54.0503C98.0595 54.3691 100.846 56.875 101.439 57.7865C102.032 58.6979 103.495 61.5232 103.723 62.0926C103.951 62.6619 104.956 66.2151 105.276 66.4429C105.595 66.6708 106.327 66.8987 106.417 66.4429C106.509 65.9878 106.007 64.3473 105.778 63.5273C105.55 62.7074 103.803 58.2392 102.806 57.0771C102.52 56.7434 101.573 55.7835 100.549 54.8487C98.9389 53.3781 96.0505 51.8865 96.2783 52.5474ZM111.852 65.5781V70.1964C111.852 70.1964 113.77 70.3842 113.805 71.2389C113.839 72.0929 114.01 66.108 114.01 66.108C114.01 66.108 113.359 64.9406 111.852 65.5781ZM135.118 54.0126C134.832 54.4139 135.875 55.0569 136.24 55.5084C136.617 55.9767 137.976 57.9689 138.203 58.4701C138.432 58.9712 140.03 61.9329 139.984 63.254C139.94 64.5752 140.077 67.3083 139.986 68.0374C139.893 68.767 139.416 70.8083 139.345 71.3639C139.277 71.9063 139.345 71.9105 139.345 71.9105C139.345 71.9105 139.774 72.0923 139.923 71.691C140.088 71.2407 140.435 69.819 140.608 69.1199C140.796 68.3598 141.019 67.6762 141.438 67.2916C141.748 67.0075 142.463 66.4974 142.463 66.4974V63.7205C142.463 63.7205 142.064 63.8772 141.79 63.6954C141.535 63.5255 141.209 62.8342 141.209 62.8342C141.209 62.8342 139.907 59.9335 139.69 59.4724C139.421 58.9013 138.868 57.6956 138.251 56.8756C138.005 56.5496 135.403 53.6107 135.118 54.0126Z" fill="#66523A"/>
<path d="M132.641 61.91C132.18 63.9375 132.323 65.4955 132.229 66.4207C132.169 67.002 131.069 69.6532 130.311 70.9995C129.62 72.2279 128.909 73.3685 127.639 74.2799C126.595 75.0299 123.734 76.125 123.803 76.5352C123.872 76.9455 125.105 77.5603 125.996 77.5603C126.886 77.5603 128.652 76.6022 129.557 75.9204C130.072 75.5317 131.749 73.46 132.093 72.8452C132.435 72.2297 133.12 70.2633 133.462 69.1963C133.805 68.1294 134.006 66.3549 134.01 65.191C134.016 63.7551 133.462 58.2881 132.641 61.91Z" fill="#FFFFFD"/>
<path d="M116.067 65.6005C116.067 65.6005 117.812 58.63 122.575 55.6306C126.953 52.8735 132.061 54.0212 134.046 55.6306C135.501 56.81 137.989 59.3207 138.4 62.6699C138.811 66.0185 138.126 75.5027 132.783 78.3119C127.439 81.1216 123.566 80.2753 122.232 79.7544C121.505 79.4703 117.058 77.0135 116.067 72.1643C115.161 67.7308 116.067 65.6005 116.067 65.6005Z" stroke="black" stroke-width="0.5" stroke-miterlimit="10"/>
</g>
</g>
<defs>
<clipPath id="clip0_12577_14097">
<rect width="241" height="186" fill="white" transform="translate(-60 18)"/>
</clipPath>
</defs>
</svg>
