<svg width="12" height="13" viewBox="0 0 12 13" fill="none" xmlns="http://www.w3.org/2000/svg">
<path d="M6 11.1915L8.8875 8.30396C9.45853 7.73288 9.84738 7.0053 10.0049 6.21322C10.1624 5.42114 10.0815 4.60014 9.77247 3.85403C9.4634 3.10793 8.94003 2.47022 8.26854 2.02156C7.59705 1.57289 6.80759 1.33342 6 1.33342C5.19241 1.33342 4.40296 1.57289 3.73147 2.02156C3.05998 2.47022 2.5366 3.10793 2.22753 3.85403C1.91846 4.60014 1.83758 5.42114 1.9951 6.21322C2.15262 7.0053 2.54148 7.73288 3.1125 8.30396L6 11.1915ZM6 12.8411L2.28767 9.12879C1.55345 8.39456 1.05344 7.4591 0.850875 6.4407C0.648308 5.42231 0.752279 4.36671 1.14964 3.4074C1.547 2.44809 2.21991 1.62816 3.08327 1.05128C3.94662 0.474409 4.96165 0.166504 6 0.166504C7.03835 0.166504 8.05338 0.474409 8.91674 1.05128C9.7801 1.62816 10.453 2.44809 10.8504 3.4074C11.2477 4.36671 11.3517 5.42231 11.1491 6.4407C10.9466 7.4591 10.4466 8.39456 9.71234 9.12879L6 12.8411ZM6 6.58312C6.30942 6.58312 6.60617 6.46021 6.82496 6.24142C7.04375 6.02262 7.16667 5.72588 7.16667 5.41646C7.16667 5.10704 7.04375 4.81029 6.82496 4.5915C6.60617 4.37271 6.30942 4.24979 6 4.24979C5.69058 4.24979 5.39384 4.37271 5.17505 4.5915C4.95625 4.81029 4.83334 5.10704 4.83334 5.41646C4.83334 5.72588 4.95625 6.02262 5.17505 6.24142C5.39384 6.46021 5.69058 6.58312 6 6.58312ZM6 7.74979C5.38116 7.74979 4.78767 7.50396 4.35009 7.06637C3.9125 6.62879 3.66667 6.0353 3.66667 5.41646C3.66667 4.79762 3.9125 4.20413 4.35009 3.76654C4.78767 3.32896 5.38116 3.08312 6 3.08312C6.61884 3.08312 7.21233 3.32896 7.64992 3.76654C8.0875 4.20413 8.33334 4.79762 8.33334 5.41646C8.33334 6.0353 8.0875 6.62879 7.64992 7.06637C7.21233 7.50396 6.61884 7.74979 6 7.74979Z" fill="#666687"/>
</svg>
