<svg width="12" height="12" viewBox="0 0 12 12" fill="none" xmlns="http://www.w3.org/2000/svg">
<path d="M9.81324 10.4139C8.75475 11.3311 7.40058 11.8351 5.99999 11.8332C2.77824 11.8332 0.166656 9.22159 0.166656 5.99984C0.166656 2.77809 2.77824 0.166504 5.99999 0.166504C9.22174 0.166504 11.8333 2.77809 11.8333 5.99984C11.8333 7.24584 11.4425 8.40084 10.7775 9.34817L8.91666 5.99984H10.6667C10.6666 4.92429 10.295 3.88179 9.61472 3.04869C8.93446 2.21559 7.98732 1.64303 6.93352 1.42788C5.87971 1.21273 4.78393 1.36818 3.83155 1.86795C2.87917 2.36772 2.12865 3.18112 1.70696 4.17055C1.28527 5.15998 1.21829 6.26471 1.51736 7.29784C1.81643 8.33097 2.46318 9.22908 3.3482 9.84025C4.23323 10.4514 5.3022 10.7381 6.37428 10.6519C7.44636 10.5656 8.45574 10.1117 9.23166 9.36684L9.81324 10.4139Z" fill="#212134"/>
</svg>
