<svg width="14" height="13" viewBox="0 0 14 13" fill="none" xmlns="http://www.w3.org/2000/svg">
<path d="M0.583344 12.8335C0.583344 11.5958 1.07501 10.4089 1.95018 9.53369C2.82535 8.65852 4.01233 8.16685 5.25001 8.16685C6.48769 8.16685 7.67467 8.65852 8.54984 9.53369C9.42501 10.4089 9.91668 11.5958 9.91668 12.8335H8.75001C8.75001 11.9053 8.38126 11.015 7.72488 10.3586C7.06851 9.70227 6.17827 9.33352 5.25001 9.33352C4.32175 9.33352 3.43151 9.70227 2.77514 10.3586C2.11876 11.015 1.75001 11.9053 1.75001 12.8335H0.583344ZM5.25001 7.58352C3.31626 7.58352 1.75001 6.01727 1.75001 4.08352C1.75001 2.14977 3.31626 0.58352 5.25001 0.58352C7.18376 0.58352 8.75001 2.14977 8.75001 4.08352C8.75001 6.01727 7.18376 7.58352 5.25001 7.58352ZM5.25001 6.41685C6.53918 6.41685 7.58334 5.37269 7.58334 4.08352C7.58334 2.79435 6.53918 1.75019 5.25001 1.75019C3.96084 1.75019 2.91668 2.79435 2.91668 4.08352C2.91668 5.37269 3.96084 6.41685 5.25001 6.41685ZM12.5697 0.45752C13.1286 1.58442 13.4186 2.82561 13.4167 4.08352C13.4167 5.3861 13.1116 6.61752 12.5697 7.70952L11.6101 7.01185C12.0331 6.09366 12.2515 5.09447 12.25 4.08352C12.25 3.03819 12.0208 2.04594 11.6101 1.15519L12.5697 0.45752ZM10.6435 1.85752C10.9348 2.56345 11.0843 3.31984 11.0833 4.08352C11.0843 4.8472 10.9348 5.60359 10.6435 6.30952L9.66526 5.59785C9.83219 5.11044 9.91714 4.59872 9.91668 4.08352C9.91733 3.56835 9.83257 3.05663 9.66584 2.56919L10.6435 1.85752Z" fill="#666687"/>
</svg>
